STARTFONT 2.1
COMMENT
COMMENT Converted from OpenType font "Font 90 Icons.ttf" by "otf2bdf 3.0".
COMMENT
FONT -FreeType-Font 90 Icons-Medium-R-Normal--48-350-100-100-P-181-ISO10646-1
SIZE 35 100 100
FONTBOUNDINGBOX 52 51 0 -10
STARTPROPERTIES 19
FOUNDRY "FreeType"
FAMILY_NAME "Font 90 Icons"
WEIGHT_NAME "Medium"
SLANT "R"
SETWIDTH_NAME "Normal"
ADD_STYLE_NAME ""
PIXEL_SIZE 48
POINT_SIZE 350
RESOLUTION_X 100
RESOLUTION_Y 100
SPACING "P"
AVERAGE_WIDTH 181
CHARSET_REGISTRY "ISO10646"
CHARSET_ENCODING "1"
FONT_ASCENT 41
FONT_DESCENT 10
COPYRIGHT "Typeface © (el-harrak.blogspot.com). <darrati10@gmail.com>. All Rights Reserved"
_OTF_FONTFILE "Font 90 Icons.ttf"
_OTF_PSNAME "Font 90 Icons"
ENDPROPERTIES
CHARS 242
STARTCHAR 0000
ENCODING 0
SWIDTH 0 0
DWIDTH 0 0
BBX 0 0 0 0
BITMAP
ENDCHAR
STARTCHAR 001D
ENCODING 29
SWIDTH 0 0
DWIDTH 0 0
BBX 0 0 0 0
BITMAP
ENDCHAR
STARTCHAR 0020
ENCODING 32
SWIDTH 246 0
DWIDTH 12 0
BBX 0 0 0 0
BITMAP
ENDCHAR
STARTCHAR 0021
ENCODING 33
SWIDTH 987 0
DWIDTH 48 0
BBX 48 47 0 -8
BITMAP
00003FFC0000
0001FFBF8000
0007FFF9E000
001FFFFC7800
003FFFFF1C00
00FFFFFF8600
01FFFFFF8300
03FFFFFFC180
03FFFFFFC0C0
07FFFE7FE060
0FFFF83FE030
1FFFF81FE010
1FFFF81FE018
3FFFF81FE008
3FFFFC3FE00C
3FFFFFFFE004
7FFFFFFFC006
7FFFFFFFC006
7FFFFFFF8006
7FFFFFFF0002
FFFFFFFE0002
FFFFFFFC0002
FFFFFFF00002
FFFFFE000003
FFFFE0000002
FFFF80000002
FFFF00000002
7FFE00000002
7FFE00000006
7FFC00000006
7FFC00000004
3FF80180000C
3FF807C0000C
3FF807E00018
1FF807E00018
0FF807E00030
0FF803C00030
07F801000060
03FC000000C0
01FC00000180
00FE00000300
007E00000E00
003F00001C00
001FC0007000
0007F003E000
0000FFFF0000
00001FF80000
ENDCHAR
STARTCHAR 0022
ENCODING 34
SWIDTH 987 0
DWIDTH 48 0
BBX 48 37 0 -3
BITMAP
00007FFE0000
0000FFFF0000
0000E0070000
0000E0030000
0000C0030000
0000C0030000
1FFFFFFFFFFC
7FFFFFFFFFFE
7FFFFFFFFFFE
7FFFFFFFFFFE
FFFFFFFFFFFF
FFFFFFFFFFFF
FFFFFFFFFFFF
FFFFFFFFFFFF
FFFFFFFFFFFF
FFFFFFFFFFFF
FFFFFFFFFFFF
FFFFFFFFFFFF
FFFFFFFFFFFF
FFFFFFFFFFFF
FFFFFFFFFFFF
FFFFFFFFFFFF
FFFFFFFFFFFF
FFFFFFFFFFFF
FFFFFFFFFFFF
FFFFFFFFFFFF
FFFFFFFFFFFF
FFFFFFFFFFFF
FFFFFFFFFFFF
FFFFFFFFFFFF
FFFFFFFFFFFF
FFFFFFFFFFFF
FFFFFFFFFFFF
FFFFFFFFFFFE
7FFFFFFFFFFE
7FFFFFFFFFFE
3FFFFFFFFFFC
ENDCHAR
STARTCHAR 0023
ENCODING 35
SWIDTH 987 0
DWIDTH 48 0
BBX 44 50 2 -10
BITMAP
000040000000
000FFE000000
203FFFC00000
F8FFFFF00000
FBFFFFFE0080
F9FFFFFFFF80
F9FFFFFFFF80
FDFFFFFFFF80
7DFFFFFFFF80
7DFFFFFFFF80
7CFFFFFFFF80
7CFFFFFFFFC0
7CFFFFFFFFC0
3EFFFFFFFFC0
3EFFFFFFFFC0
3EFFFFFFFFC0
3E7FFFFFFFC0
3E7FFFFFFFE0
3F7FFFFFFFE0
1F7FFFFFFFE0
1F7FFFFFFFE0
1F3FFFFFFFE0
1F3FFFFFFFE0
1F3FF87FFFF0
1FBF8007FFF0
0FBE0001FFF0
0F9800007FF0
0F9000000FF0
0F80000003F0
0F8000000000
07C000000000
07C000000000
07C000000000
07C000000000
07C000000000
07E000000000
03E000000000
03E000000000
03E000000000
03E000000000
03E000000000
03F000000000
01F000000000
01F000000000
01F000000000
01F000000000
01F800000000
00F800000000
00F800000000
00F800000000
ENDCHAR
STARTCHAR 0024
ENCODING 36
SWIDTH 987 0
DWIDTH 48 0
BBX 47 47 0 -8
BITMAP
03E000000000
07F800000000
0FF800000000
1FFC00000000
3FFE00000000
7FFF00000000
7FFF80000000
FFFFC0000000
FFFFE0000000
FFFFF8000000
7FFFFC000000
7FFFFE000000
3FFFFD000000
1FFFFBC00000
07FFF7E00000
03FFEFF00000
01FFDFFC0000
00FFBFF80000
00FF7FF00000
007EFFE00000
003DFFC00000
001BFF800000
0017FF800000
000FFEC00000
0007FDC00000
0003F8E00000
0001F0700000
0000E0380000
0000C01C0000
000000060000
000000030000
000000018000
00000000C000
000000006000
000000003000
000000001800
000000000C00
000000000600
000000000200
000000000100
000000000080
000000000040
000000000020
000000000010
000000000008
000000000004
000000000002
ENDCHAR
STARTCHAR 0025
ENCODING 37
SWIDTH 987 0
DWIDTH 48 0
BBX 44 51 2 -10
BITMAP
000006000000
00001F800000
00003FC00000
00003FC00000
00003FC00000
00003FC00000
0003FFFC0000
000FFFFF0000
001FFFFF8000
007FFFFFE000
00FFFFFFF000
7DFFFFFFFBE0
FFFF1F8FFFF0
FFFC1F03FFF0
FFF80F01FFF0
FFF00F00FFF0
FFF00F00FFF0
7FF80E01FFE0
3FFC0E03FFC0
3FFE0607FFC0
3FFF0E0FFFC0
3F7FCF3FCFC0
3F07FFFE0FC0
3F00FFF00FC0
3F007FE00FC0
3F003FC00FC0
3F007FE00FC0
3F00FFF00FC0
3F0FFFFF0FC0
3F7FCF3FFFC0
3FFF0E0FFFC0
3FFE0E07FF80
3FFC0F03FFE0
7FF80F01FFF0
FFF00F00FFF0
FFF00F00FFF0
FFF81F01FFF0
FFFC1F83FFF0
7FFF1F8FFFF0
3DFFFFFFFBC0
00FFFFFFF000
007FFFFFE000
001FFFFF8000
000FFFFF0000
0001FFF80000
00003FC00000
00003FC00000
00003FC00000
00001F800000
00001F800000
000006000000
ENDCHAR
STARTCHAR 0026
ENCODING 38
SWIDTH 987 0
DWIDTH 48 0
BBX 47 47 0 -8
BITMAP
00003FFC0000
0001FFFF8000
0007FFFFE000
001FC003F800
003E00007C00
007800003E00
01F00FF00F00
03E07FFE0780
0381FFFF83C0
0707FFFFC1E0
0F0FFFFFF0F0
0E1FFFFFF870
1C3FFFFFF838
1C3FFFFFFC38
387FFFFFFE1C
38FCFFFFFE1C
70FE7FFEFF0C
70FF3FFCFF0E
71FF9FF9FF8E
71FFCFF3FF8E
61FFE7E7FF8E
E1FFF3CFFF86
E1FFF99FFF86
E1FFFC3FFF86
E1FFFC3FFF86
E1FFFE3FFF86
61FFFFFFFF8E
71FFFFFFFF8E
71FFFFFFFF0E
70FFFFFFFF0E
70FFFFFFFF1C
387FFFFFFE1C
387FFFFFFE1C
1C3FFFFFFC38
1C1FFFFFF878
0E1FFFFFF070
0F07FFFFE0E0
0783FFFFC1E0
03C1FFFF03C0
01E03FFC0780
00F007E00F00
007C00003E00
003F0000FC00
000FE007F000
0003FFFFC000
0000FFFF0000
00001FF00000
ENDCHAR
STARTCHAR 0027
ENCODING 39
SWIDTH 987 0
DWIDTH 48 0
BBX 47 47 0 -9
BITMAP
0007FF000000
001FFFE00000
007FFFF80000
00FFFFFC0000
03FFFFFE0000
07FFFFFF0000
07FFFFFF8000
0FFE01FFC000
1FF8007FE000
1FE0303FE000
3FC0781FF000
3FC0F80FF000
7F80F807F000
7F00F807F800
7F00F803F800
7F00F803F800
FF1FFFE3F800
FF3FFFE3F800
FF3FFFE3F800
FF1FFFE3F800
7F00F803F800
7F00F803F800
7F00F807F800
7F80F807F000
3FC0F80FF000
3FC0781FF000
3FE0303FE000
1FF8007FE000
0FFC01FFF000
0FFFFFFFF800
07FFFFFFFC00
03FFFFFFFE00
01FFFFFFFF00
007FFFFFFF80
001FFFFFFFC0
0007FF9FFFE0
0000000FFFF0
00000007FFF8
00000003FFFC
00000001FFFE
00000000FFFE
000000007FFE
000000003FFE
000000001FFE
000000000FFE
0000000007FC
0000000001F8
ENDCHAR
STARTCHAR 0028
ENCODING 40
SWIDTH 987 0
DWIDTH 48 0
BBX 47 48 0 -8
BITMAP
000070000000
000FFF800000
003FFFE00000
007FFFF80000
01FFFFFC0000
03FFFFFF0000
07FFFFFF8000
0FFFFFFF8000
0FFC01FFC000
1FF0007FE000
3FE0001FE000
3FC0001FF000
7F80000FF000
7F800007F000
7F000007F800
7F000003F800
7F0FFFC3F800
FF3FFFE3F800
FF3FFFE3F800
FF3FFFE3F800
FF1FFFC3F800
7F000003F800
7F000003F800
7F800007F800
7F800007F000
3FC0000FF000
3FC0001FF000
1FF0003FE000
1FF8007FF000
0FFE01FFF800
07FFFFFFFC00
07FFFFFFFE00
03FFFFFFFF00
00FFFFFFFF80
007FFFFFFFC0
001FFFFFFFE0
0007FF0FFFF0
00000007FFF8
00000003FFFC
00000001FFFE
00000000FFFE
000000007FFE
000000003FFE
000000001FFE
000000000FFE
0000000007FE
0000000003FC
0000000001F8
ENDCHAR
STARTCHAR 0029
ENCODING 41
SWIDTH 987 0
DWIDTH 48 0
BBX 46 35 1 -2
BITMAP
7FFFFFFFFFFC
FFFFFFFFFFFC
FFFFFFFFFFFC
F8000000007C
FC00000000FC
FE00000001FC
DF00000003EC
CF80000007CC
C7C000000F8C
C3E000001F0C
C1F000003E0C
C0F800007C0C
C07C0000F80C
C03E0001F00C
C01F0003C00C
C00F8007800C
C007C00F000C
C003E01E000C
C003F03F000C
C007F87F800C
C00F7FFBC00C
C01E3FF1E00C
C03C1FE0F00C
C0780300780C
C0F000003C0C
C1E000001E0C
C3C000000F0C
C7800000078C
CF00000003CC
DE00000001EC
FC00000000FC
F8000000007C
FFFFFFFFFFFC
FFFFFFFFFFFC
FFFFFFFFFFFC
ENDCHAR
STARTCHAR 002A
ENCODING 42
SWIDTH 987 0
DWIDTH 48 0
BBX 42 51 3 -10
BITMAP
00001C000000
00003F000000
00003F000000
00003F000000
00003F000000
00003F000000
00003F000000
00003F000000
00003F000000
00003F000000
00003F000000
00003F000000
00003F000000
00F03F078000
00FC3F1F8000
00FF3F7F8000
00FFFFFF8000
007FFFFF0000
003FFFFE0000
001FFFFC0000
1FEFFFFBFE00
3FF7FFF7FF00
1FFBFFEFFE00
4FFDFFDFFC80
E7FEFFBFF9C0
F3FF7F7FF3C0
F9FFBEFFE7C0
FCFFDDFFCFC0
FE7FF7FF9FC0
FF3FFFFF3FC0
FF9FFFFE7FC0
FFCFFFFCFFC0
FFE7FFF9FFC0
FFF3FFF3FFC0
FFF9FFE7FFC0
FFFCFFCFFFC0
FFFC7F8FFFC0
FFFB3F37FFC0
FFF79E7BFFC0
FFEFC0FDFFC0
FFDFFFFEFFC0
FFBFFFFF7FC0
FF7FFFFFBFC0
FEFFFFFFDFC0
FDFFFFFFEFC0
FBFFFFFFF7C0
F7FFFFFFFBC0
EFFFFFFFFDC0
5FFFFFFFFE80
3FFFFFFFFF00
1FFFFFFFFE00
ENDCHAR
STARTCHAR 002B
ENCODING 43
SWIDTH 987 0
DWIDTH 48 0
BBX 47 47 0 -8
BITMAP
FFFFFFFFFFFE
FFFFFFFFFFFE
FFFFFFFFFFFE
FFFFFFFFFFFE
FFFFFFFFFFFE
FFFFFFFFFFFE
FC007FFE003E
FC00FFFF003E
FC01FFFF803E
FC03FFFFC03E
FC01FFFF803E
FC00FFFF003E
FC007FFE003E
FC003FFC003E
FC407FFE023E
FCE0FFFF073E
FDF1FFFF8FBE
FFFBFFFFDFFE
FFFFFFFFFFFE
FFFFFFFFFFFE
FFFFFFFFFFFE
FFFFFFFFFFFE
FFFFFFFFFFFE
FFFFFFFFFFFE
FFFFFFFFFFFE
FFFFFFFFFFFE
FFFFFFFFFFFE
FFFFFFFFFFFE
FFFFFFFFFFFE
FFFBFFFFDFFE
FDF1FFFF8FBE
FCE0FFFF073E
FC407FFE023E
FC007FFE003E
FC00FFFF003E
FC01FFFF803E
FC03FFFFC03E
FC03FFFFC03E
FC01FFFF803E
FC00FFFF003E
FC3FFFFFFC3E
FFFFFFFFFFFE
FFFFFFFFFFFE
FFFFFFFFFFFE
FFFFFFFFFFFE
FFFFFFFFFFFE
FFFFFFFFFFFE
ENDCHAR
STARTCHAR 002C
ENCODING 44
SWIDTH 987 0
DWIDTH 48 0
BBX 47 47 0 -8
BITMAP
000000000F00
00000003FF80
0000003FFFC0
0000007FFFE0
000000FFFFF0
000001FFFFF8
000003FFFFFC
000007FFF9FE
00000FFFF0FE
00001FFFE07E
00003FFFF0FE
00007FFFF9FE
0000FFFFFFFE
0001FFFFFFFE
0003FFFFFFFC
0007FFFFFFFC
000FFFFFFFFC
001FFFFFFFFC
003FFFFFFFFC
007FFFFFFFFC
00FCFFFFFFF8
01F87FFFFFF0
03FC3FFFFFE0
07FE1FFFFFC0
0FCF0FFFFF80
1FC787FFFF00
3FE3C3FFFE00
7FF1E1FFFC00
FFF8F0FFF800
7FFC787FF000
3FFE3C3FE000
1FFF1E1FC000
0FFF8F0F8000
07FFC79F0000
03FFE3FE0000
01FFF1FC0000
00FFF8F80000
007FFDF00000
003FFFE00000
001FFFC00000
000FFF800000
0007FF000000
0003FE000000
0001FC000000
0000F8000000
000070000000
000020000000
ENDCHAR
STARTCHAR 002D
ENCODING 45
SWIDTH 987 0
DWIDTH 48 0
BBX 48 47 0 -8
BITMAP
00003FF80000
0001FFFF8000
0007FFFFE000
001FE007F800
003F0000FC00
007C00003E00
01F000000F00
03E000000780
03E0000003C0
07F0000181E0
0F78000380F0
0E3C00078070
1C1E000F8078
1C0F001F8038
3807803F803C
3803C07F801C
780000FF801C
7000FFFF800E
7001FFFF800E
7001FFFF800E
7001FFFF800E
E001FFFF800E
E001FFFF800E
E001FFFF800F
E001FFFF800E
E001FFFF800E
7001FFFF800E
7001FFFF800E
7001FFFF800E
700000FF801E
7800007F801C
3800007F801C
3800003FA03C
1C00001FB038
1E00000FB878
0E0000079CF0
0F0000039EF0
078000018FE0
03C0000007C0
01E000000780
00F800001F00
007C00003E00
003F0001FC00
000FF00FF000
0007FFFFC000
0000FFFF0000
00001FF80000
ENDCHAR
STARTCHAR 002E
ENCODING 46
SWIDTH 987 0
DWIDTH 48 0
BBX 40 51 4 -10
BITMAP
0FFFFFFFF8
1FFFFFFFFE
1C0000000E
180000000E
180000000E
180000000E
180000000E
180000000E
180000000E
180000000E
180000000E
180000000E
180000000E
180000000E
180000000E
180000000E
180000000E
180000000E
180000000E
180000000E
180000000E
180000000E
180000000E
180000000E
1FFFFFFFFE
1FFFFFFFFC
0000000000
0000000000
0FFFFFFFF8
1FFFFFFFFE
1FFFFFFFFE
1FFFFFFFFE
1FFFFFC03E
1FFFFFC03E
1FFFFFFFFE
1FFFFFFFFE
1FFFFFFFFE
1FFFFFFFFC
00001C0000
00001C0000
00001C0000
00001C0000
00001C0000
00001C0000
0007FFF000
0007FFF000
0007FFF000
FFFFFFFFFF
FFFFFFFFFF
0007FFF000
0007FFF000
ENDCHAR
STARTCHAR 002F
ENCODING 47
SWIDTH 987 0
DWIDTH 48 0
BBX 47 49 0 -9
BITMAP
000007C00000
07001FF800E0
07003FFC00E0
03807FFE01C0
0380FFFF01C0
03C0FFFF03C0
01C1FFFF0380
61C1FFFF8786
71E1FFFF878E
71E1FFFF870E
70E1FFFF8F1E
78F1FFFF8F1E
38F1FFFF8F1C
38F1FFFF8F1C
38F1FFFF8E3C
3CF1FFFF9E3C
3C71FFFF9E3C
3C79FFFF9E3C
3C79FFFF9E3C
3C79FFFF9E3C
3C79FFFF9E3C
3C79FFFF9E3C
3C79FFFF9E3C
3C71FFFF9E3C
3C71FFFF9E3C
38F1FFFF8E3C
38F1FFFF8F1C
38F1FFFF8F1C
78F1FFFF8F1C
70E1FFFF8F1E
70E1FFFF870E
71E0FFFF078E
E1C0FFFF0786
61C07FFE0386
03C07FFC0380
03803FF801C0
03801FF001C0
07001FF001E0
07001FF000E0
00001FF00000
00001FF00000
00001FF00000
00001FF00000
00001FF00000
00001FF00000
00001FF00000
00000FF00000
00000FF00000
000007C00000
ENDCHAR
STARTCHAR 0030
ENCODING 48
SWIDTH 987 0
DWIDTH 48 0
BBX 47 47 0 -8
BITMAP
00003FF80000
0001FFFF8000
0007FFFFE000
001FFFFFF000
003FFFFFFC00
007FFFFFFE00
00FFFFFFFF00
01FFFFFFFF80
03FDFFFF3FC0
07F0FFFF1FE0
0FE0FFFE07F0
0FC07FFE03F0
1F803FFC03F8
3F803FFC01F8
3F001FF800FC
3F001FF000FC
7E000FF0007E
7E000FE0007E
7C000FF0007E
7C001FF8003E
7C003C3C003E
FC00381C003E
FC00301C003E
FFFFF01FFFFE
FFFFF01FFFFE
FFFFF81FFFFE
7FFFFC3FFFFE
7FFFFFFFFFFE
7FFFFFFFFFFE
7FFFF3DFFFFE
7FFFF00FFFFC
3FFFE00FFFFC
3FFFE007FFFC
1FFFC003FFF8
1FFF8003FFF8
0FFF8001FFF0
0FFF0001FFF0
07FF0000FFE0
03FE0000FFC0
01FE0000FF80
00FFC003FF00
007FFFFFFE00
003FFFFFFC00
001FFFFFF000
0007FFFFE000
0001FFFF8000
00001FF80000
ENDCHAR
STARTCHAR 0031
ENCODING 49
SWIDTH 987 0
DWIDTH 48 0
BBX 46 51 1 -10
BITMAP
00001FE00000
00003FF00000
00003FF00000
00003FF00000
00003FF00000
00003FF00000
00023FF10000
000E3FF1C000
003E3FF1F000
007E3FF1F800
00FE3FF1FC00
01FE3FF1FE00
03FE3FF1FF00
07FE3FF1FF80
0FFC3FF0FFC0
1FF03FF07FC0
1FE03FF01FE0
3FC03FF01FE0
3FC03FF00FF0
7F803FF007F0
7F003FF007F8
7F003FF003F8
FF003FF003F8
FE003FF003F8
FE003FF001FC
FE003FF001FC
FE003FF001FC
FE003FF001FC
FE001FE001FC
FE00000001FC
FE00000001FC
FE00000003F8
FF00000003F8
7F00000003F8
7F00000007F8
7F80000007F0
3F8000000FF0
3FC000000FF0
1FE000001FE0
1FF000003FE0
0FF800007FC0
07FE0001FF80
07FF8007FF00
03FFF03FFE00
01FFFFFFFC00
00FFFFFFF800
003FFFFFF000
001FFFFFC000
0007FFFF8000
0000FFFC0000
000003000000
ENDCHAR
STARTCHAR 0032
ENCODING 50
SWIDTH 987 0
DWIDTH 48 0
BBX 44 51 2 -10
BITMAP
00000E000000
00001F800000
00003FC00000
00003FC00000
00003FC00000
00003FC00000
00003FC00000
00003FC00000
00003FC00000
00003F800000
00003F800000
7C001F8003E0
FF001F800FF0
FF801F001FF0
FFC01F003FF0
FFE00F00FFF0
FFF00E01FFF0
7FF80E01FFE0
3FFC0E03FFC0
1FFE0607FF00
03FF0E1FFC00
007F8F3FC000
0007FFFE0000
0000FFF00000
00007FE00000
00003FC00000
00007FE00000
0000FFF00000
000FFFFE0000
007FCF3FE000
03FF0E0FFE00
0FFE0E07FF80
3FFC0F03FFC0
FFF80F01FFE0
FFF00F00FFF0
FFE00F007FF0
FFC01F003FF0
FF801F801FF0
FE001F800FF0
3C001F8003C0
00003F800000
00003FC00000
00003FC00000
00003FC00000
00003FC00000
00003FC00000
00003FC00000
00003FC00000
00003F800000
00001F800000
000004000000
ENDCHAR
STARTCHAR 0033
ENCODING 51
SWIDTH 987 0
DWIDTH 48 0
BBX 47 45 0 -7
BITMAP
000001000000
000001800000
000001800000
000003C00000
000003C00000
000007E00000
000007E00000
00000FF00000
00000FF00000
00001FF80000
00001FF80000
00003FFC0000
00003FFC0000
00007FFE0000
00007FFE0000
001FFFFFF000
07FFFFFFFFE0
FFFFFFFFFFFE
3FFFFFFFFFFC
1FFFFFFFFFF8
0FFFFFFFFFF0
07FFFFFFFFE0
03FFFFFFFFC0
01FFFFFFFF80
00FFFFFFFF00
007FFFFFFE00
003FFFFFFC00
001FFFFFF800
000FFFFFF000
000FFFFFF000
000FFFFFF000
000FFFFFF000
001FFFFFF000
001FFFFFF800
001FFFFFF800
001FFFFFF800
001FFFFFF800
001FFE7FF800
003FF83FF800
003FE00FFC00
003FC003FC00
003F0000FC00
003C00003C00
003000000C00
004000000200
ENDCHAR
STARTCHAR 0034
ENCODING 52
SWIDTH 987 0
DWIDTH 48 0
BBX 47 35 0 -2
BITMAP
1FFFFFFFFFF8
1FFFFFFFFFF8
1FFFFFFFFFF8
4FFFFFFFFFF2
E7FFFFFFFFEE
F3FFFFFFFFDE
F9FFFFFFFFBE
FCFFFFFFFF7E
FE7FFFFFFEFE
FF3FFFFFFDFE
FF9FFFFFFBFE
FFCFFFFFF7FE
FFE7FFFFEFFE
FFF3FFFFDFFE
FFF9FFFFBFFE
FFFCFFFF7FFE
FFFE7FFEFFFE
FFFF3FFCFFFE
FFFF1FF8FFFE
FFFECFF37FFE
FFFDE7E7BFFE
FFFBF18FDFFE
FFF7FC3FEFFE
FFEFFFFFF7FE
FFDFFFFFFBFE
FFBFFFFFFDFE
FF7FFFFFFEFE
FEFFFFFFFF7E
FDFFFFFFFFBE
FBFFFFFFFFDE
F7FFFFFFFFEE
6FFFFFFFFFF6
1FFFFFFFFFF8
1FFFFFFFFFF8
1FFFFFFFFFF0
ENDCHAR
STARTCHAR 0035
ENCODING 53
SWIDTH 987 0
DWIDTH 48 0
BBX 47 37 0 -4
BITMAP
000001800000
000003C1FC00
00000FE1FC00
00001C39FC00
0000791DFC00
0000E38FFC00
0003C7E3FC00
00071FF1FC00
001E3FFC7C00
0038FFFE3C00
00F1FFFF8E00
01C3FFFFC780
038FFFFFE1C0
0F1FFFFFF8E0
1C7FFFFFFC38
78FFFFFFFF1C
E1FFFFFFFF0E
41FFFFFFFF02
01FFFFFFFF00
01FFFFFFFF00
01FFFFFFFF00
01FFF00FFF00
01FFF00FFF00
01FFF00FFF00
01FFF00FFF00
01FFF00FFF00
01FFF00FFF00
01FFF00FFF00
01FFF00FFF00
01FFF00FFF00
01FFF00FFF00
01FFF00FFF00
01FFF00FFF00
01FFF00FFF00
01FFF00FFF00
00FFF00FFF00
00FFF00FFE00
ENDCHAR
STARTCHAR 0036
ENCODING 54
SWIDTH 987 0
DWIDTH 48 0
BBX 47 49 0 -9
BITMAP
00F000007C00
01F80000FE00
03FC0000FF00
03FC0000FF00
03FC0000FF00
03FC0000FF00
01F800007E00
00F000003800
000000000000
1FFF8003FFC0
3FFFC007FFE0
7FFFE00FFFE0
7FFFE00FFFF0
FFFFF01FFFF0
FFFFF01EFF70
F7FEF01FFF78
F7FEF01DFFF8
F7FEF03DFFB8
F7FEF03DFFBC
F7FEF03BFFBC
F7FEF07BFFDC
F7FEF07BFFDC
F7FEF07FFFDE
F7FEF077FFFE
F7FEF0F7FFEE
F7FEF0F7FFEE
F7FEF02FFFE4
77FEF00FFFF0
07FE000FFFF0
07DE001FFFF0
07DE001FFFF8
07DE001FFFF8
07DE001FFFF8
07DE0021EF00
07DE0001EF00
07DE0001EF00
07DE0001EF00
07DE0001EF00
07DE0001EF00
07DE0001EF00
07DE0001EF00
07DE0001EF00
07DE0001EF00
07DE0001EF00
07DE0001EF00
07DE0001EF00
07DE0001EF00
07DE0001EF00
039E0000E700
ENDCHAR
STARTCHAR 0037
ENCODING 55
SWIDTH 987 0
DWIDTH 48 0
BBX 47 36 0 -2
BITMAP
0000F0000000
000FFF800000
003FFFE00000
00FF07F80000
01FE03FC0000
03FC01FE0000
07FC01FF0000
0FF800FF8000
1FF800FFC000
1FF801FFC000
3FFC01FFE000
3FFC03FFE000
7FFF07FFF000
7C1FFFC1F000
780FFF80F000
7007FF007000
F007FE007000
E003FE003000
E003FE003000
F003FE007000
F007FF007000
780FFF00F000
7C1FFFC1F000
7FFF07FFF000
7FFE03FFE000
3FFC01FFE000
3FF801FFE000
1FF800FFC000
1FF800FF8000
0FF801FF8000
07FC01FFC00E
03FE03FFC03E
01FF07FDF1FE
007FFFF0FFF8
003FFFE07FE0
0007FF001F00
ENDCHAR
STARTCHAR 0038
ENCODING 56
SWIDTH 987 0
DWIDTH 48 0
BBX 36 51 6 -10
BITMAP
3FFFFFFFC0
FFFFFFFFF0
FFFFFFFFF0
FFFFFFFFF0
F0000000F0
E000000070
E000000070
E000000070
E000000070
E000000070
E000000070
E000000070
E000000070
F0000000F0
FFFFFFFFF0
FFFFFFFFF0
FFFFFFFFF0
FFFFFFFFF0
F03E07C0F0
F03E07C0F0
F03E07C0F0
F03E07C0F0
F03E07C0F0
F03E07C0F0
FFFFFFFFF0
FFFFFFFFF0
FFFFFFFFF0
FFFFFFFFF0
FFFFFFFFF0
F03E07C0F0
F03E07C0F0
F03E07C0F0
F03E07C0F0
F03E07C0F0
F03E07C0F0
FFFFFFFFF0
FFFFFFFFF0
FFFFFFFFF0
FFFFFFFFF0
F03E07C0F0
F03E07C0F0
F03E07C0F0
F03E07C0F0
F03E07C0F0
F03E07C0F0
F03E07C0F0
FFFFFFFFF0
FFFFFFFFF0
FFFFFFFFF0
FFFFFFFFF0
3FFFFFFFC0
ENDCHAR
STARTCHAR 0039
ENCODING 57
SWIDTH 987 0
DWIDTH 48 0
BBX 47 45 0 -7
BITMAP
700000000000
F80000000000
7C0000000000
3E0000000000
1F0000000000
0F0000000000
0783FFFFFFFE
03C3FFFFFFFE
03C3FFFFFFFC
01E3FFFFFFFC
01E3FFFFFFF8
00E1FFFFFFF8
00F1FFFFFFF8
00F1FFFFFFF0
0071FFFFFFF0
0079FFFFFFE0
0079FFFFFFE0
0078FFFFFFC0
0038FFFFFFC0
0038FFFFFF80
003CFFFFFF80
003CFFFFFF00
003CFFFFFF00
001C00000000
001C00000000
001C00000000
001C00000000
001E00000000
001E00000000
001FFFFFFFF0
001FFFFFFFF0
000FFFFFFFF0
0007FFFFFFE0
000000000000
000000000000
000700000700
001FC0000FC0
001FE0001FE0
003FE0003FE0
003FE0003FF0
003FF0003FF0
003FE0003FF0
003FE0003FE0
001FC0001FC0
000F80000F80
ENDCHAR
STARTCHAR 003A
ENCODING 58
SWIDTH 987 0
DWIDTH 48 0
BBX 47 47 0 -8
BITMAP
00000003F800
0000001FFF00
0000003FFFC0
0000007FFFE0
000000FFFFF0
000001FFFFF8
000003FFF0F8
000007FFE07C
000007FFC07C
000007FFC03E
00000FFFC07E
00000FFFE07E
00000FFFF0FE
00000FFFFFFE
00000FFFFFFE
00000FFFFFFE
00000FFFFFFE
000007FFFFFE
000007FFFFFC
000027FFFFFC
000063FFFFFC
0000F1FFFFF8
0001F9FFFFF0
0003F8FFFFE0
0007FC7FFFC0
000FFE1FFF00
001FFF07FC00
003FFFC00000
007FFFF00000
00FFFFE00000
01FFFE000000
03FFFE000000
07FFFE000000
0FFFF0000000
1FFFF0000000
3FFFF0000000
3FFC00000000
7FFC00000000
7FFC00000000
FFFC00000000
FFFC00000000
FFFC00000000
7FC000000000
7FC000000000
3FC000000000
1FC000000000
0FC000000000
ENDCHAR
STARTCHAR 003B
ENCODING 59
SWIDTH 987 0
DWIDTH 48 0
BBX 48 47 0 -8
BITMAP
000003C00000
000003C00000
000003C00000
000003C00000
000003C00000
000003C00000
000003C00000
000003C00000
000003C00000
000003C00000
000003C00000
000003C00000
000003C00000
000003C00000
000003C00000
000003C00000
000003C00000
000003C00000
000003C00000
000003C00000
000003C00000
000003C00000
FFFFFFFFFFFF
FFFFFFFFFFFF
FFFFFFFFFFFF
000003C00000
000003C00000
000003C00000
000003C00000
000003C00000
000003C00000
000003C00000
000003C00000
000003C00000
000003C00000
000003C00000
000003C00000
000003C00000
000003C00000
000003C00000
000003C00000
000003C00000
000003C00000
000003C00000
000003C00000
000003C00000
000003C00000
ENDCHAR
STARTCHAR 003C
ENCODING 60
SWIDTH 987 0
DWIDTH 48 0
BBX 47 38 0 -3
BITMAP
000001800000
000003C00000
000003C00000
000007E00000
000007E00000
00000FF00000
00001FF80000
00001FF80000
00003E7C0000
00003E7C0000
00007C3E0000
0000F83E0000
0000F81F0000
0001F00F8000
0001F00F8000
0003E007C000
0007C007C000
0007C003E000
000F8001F000
000F8001F000
001F0000F800
003E0000F800
003E00007C00
007C00003E00
007C00003E00
00F800001F00
01F000001F00
01F000000F80
03E0000007C0
03E0000007C0
07C0000003E0
0F80000003E0
0F80000001F0
1F00000000F8
1F00000000F8
3E000000007C
7C000000007C
FC000000003E
ENDCHAR
STARTCHAR 003D
ENCODING 61
SWIDTH 987 0
DWIDTH 48 0
BBX 47 47 0 -8
BITMAP
00001FF80000
0001FFFF0000
0007E007E000
001F0000F800
003C00003C00
00F000000E00
01C000000700
038000000380
0300000001C0
061FFFF000E0
0E07F3FC0070
0C03E07E0030
1803E01F0038
3803E01F8018
3003E00F801C
3003E00F800C
6003E00FC00C
6003E00F8006
6003E00F8006
6003E01F8006
E003E01F0006
C003E07E0006
C003E3F80006
C003FFE00006
C003E7E00006
C003E3E00006
6003E1F00006
6003E0F80006
6003E0FC0006
6003E07C000E
7003E03E000C
3003E01F000C
3003E01F001C
1803E00F8018
1803E007C038
0C07E007E030
0E1FFC03F860
073FFE01F8E0
0380000001C0
01C000000380
00E000000700
007000000E00
003C00003C00
000F0001F000
0007F00FC000
0000FFFF0000
00001FF00000
ENDCHAR
STARTCHAR 003E
ENCODING 62
SWIDTH 987 0
DWIDTH 48 0
BBX 47 47 0 -8
BITMAP
00001FF80000
0001FFFF0000
0007E007E000
001F0000F000
003C00003C00
00F000000E00
01E000000700
038000000380
030003F031C0
06003FFE70E0
0E00F807F070
0C01E001F030
1803C000F038
380780007018
300F0000301C
301F0000300C
703E0000100C
603E00001006
607E00000006
607C00000006
E07C00000006
C07C00000006
C07C00000006
C07C00000006
C07C00000006
C07C00000006
607C00000006
607E00000006
607E00000006
603E0000000E
703F0000000C
301F0000180C
300F8000301C
180FC0006018
1807E000C038
0C01F8038030
0E00FFFF0060
07001FF800E0
0380000001C0
01C000000380
00E000000700
007000001E00
003C00003C00
001F0001F000
0007F00FC000
0000FFFF0000
00001FF80000
ENDCHAR
STARTCHAR 003F
ENCODING 63
SWIDTH 987 0
DWIDTH 48 0
BBX 47 47 0 -8
BITMAP
00001FF80000
0001FFFF0000
0007FFFFE000
000FFFFFF000
003FFFFFFC00
007FF81FFE00
00FF8001FF00
01FE00007F80
03F800003FC0
07F000000FE0
0FE0000007F0
0FC0000003F0
1F80000001F8
1F80000001F8
3F00000000FC
3E00000000FC
7E000000007C
7E000000007E
7C000000003E
7C000000003E
7C000000003E
FC000000003E
FC000000003E
FC000000003E
FC000000003E
FC000000003E
7C000000003E
7C000000003E
7C000000007E
7E000000007E
7E000000007C
3E00000000FC
3F00000000FC
1F80000001F8
1F80000003F8
0FC0000003F0
0FE0000007E0
07F000000FE0
03F800003FC0
01FE00007F80
00FF8001FF00
007FF81FFE00
003FFFFFFC00
001FFFFFF000
0007FFFFE000
0001FFFF0000
00001FF80000
ENDCHAR
STARTCHAR 0040
ENCODING 64
SWIDTH 987 0
DWIDTH 48 0
BBX 47 47 0 -8
BITMAP
000001000000
000001800000
000001800000
000003C00000
000003C00000
000007E00000
000007E00000
00000FF00000
00000FF00000
00001FF80000
00001FF80000
00003FFC0000
00003FFC0000
00007FFE0000
00007FFE0000
0000FFFF0000
0000FFFF0000
0001FFFF8000
0001FFFF8000
0003FFFFC000
0003FFFFC000
0007FFFFE000
0007FFFFE000
000FFFFFF000
000FFFFFF000
001FFFFFF800
001FFFFFF800
003FFFFFFC00
003FFFFFFC00
007FFFFFFE00
007FFFFFFE00
00FFFFFFFF00
00FFFFFFFF00
01FFFFFFFF80
01FFFFFFFF80
03FFFFFFFFC0
03FFFFFFFFC0
07FFFFFFFFE0
07FFFFFFFFE0
0FFFFFFFFFF0
0FFFFFFFFFF0
1FFFFFFFFFF8
1FFFFFFFFFF8
3FFFFFFFFFFC
3FFFFFFFFFFC
7FFFFFFFFFFE
FFFFFFFFFFFE
ENDCHAR
STARTCHAR 0041
ENCODING 65
SWIDTH 987 0
DWIDTH 48 0
BBX 47 45 0 -7
BITMAP
800040000000
E00070000000
F00078000000
F8007C000000
FE007F000000
FF007F800000
FF807FC00000
FFE07FF00000
FFF07FF80000
FFF87FFC0000
FFFE7FFF0000
FFFF3FFF8000
FFFF8FFFC000
FFFFE7FFF000
FFFFF3FFF800
FFFFF8FFFC00
FFFFFE7FFF00
FFFFFF3FFF80
FFFFFF8FFFC0
FFFFFFE7FFF0
FFFFFFF3FFF8
FFFFFFF8FFFC
FFFFFFFE7FFE
FFFFFFF9FFFC
FFFFFFF3FFF8
FFFFFFC7FFE0
FFFFFF9FFFC0
FFFFFF3FFF80
FFFFFC7FFE00
FFFFF9FFFC00
FFFFF3FFF800
FFFFC7FFE000
FFFF9FFFC000
FFFF3FFF8000
FFFC7FFE0000
FFF87FFC0000
FFF07FF80000
FFC07FE00000
FF807FC00000
FF007F800000
FC007E000000
F8007C000000
F00078000000
C00060000000
800040000000
ENDCHAR
STARTCHAR 0042
ENCODING 66
SWIDTH 987 0
DWIDTH 48 0
BBX 42 50 3 -9
BITMAP
80000001FF80
C0000001FF80
F0000001FF80
FC000001FF80
FE000001FF80
FF800001FF80
FFC00001FF80
FFF00001FF80
FFFC0001FF80
FFFE0001FF80
FFFF8001FF80
FFFFE001FF80
FFFFF001FF80
FFFFFC01FF80
FFFFFF01FF80
FFFFFF81FF80
FFFFFFE1FF80
FFFFFFF1FF80
FFFFFFFDFF80
FFFFFFFFFF80
FFFFFFFFFF80
FFFFFFFFFF80
FFFFFFFFFF80
FFFFFFFFFF80
FFFFFFFFFF80
FFFFFFFFFFC0
FFFFFFFFFF80
FFFFFFFFFF80
FFFFFFFFFF80
FFFFFFFFFF80
FFFFFFFFFF80
FFFFFFFFFF80
FFFFFFFDFF80
FFFFFFF1FF80
FFFFFFE1FF80
FFFFFF81FF80
FFFFFE01FF80
FFFFFC01FF80
FFFFF001FF80
FFFFC001FF80
FFFF8001FF80
FFFE0001FF80
FFFC0001FF80
FFF00001FF80
FFC00001FF80
FF800001FF80
FE000001FF80
F8000001FF80
F0000001FF80
C0000001FF80
ENDCHAR
STARTCHAR 0043
ENCODING 67
SWIDTH 987 0
DWIDTH 48 0
BBX 36 51 6 -10
BITMAP
FFFE07FFF0
FFFE07FFF0
FFFE07FFF0
FFFE07FFF0
FFFE07FFF0
FFFE07FFF0
FFFE07FFF0
FFFE07FFF0
FFFE07FFF0
FFFE07FFF0
FFFE07FFF0
FFFE07FFF0
FFFE07FFF0
FFFE07FFF0
FFFE07FFF0
FFFE07FFF0
FFFE07FFF0
FFFE07FFF0
FFFE07FFF0
FFFE07FFF0
FFFE07FFF0
FFFE07FFF0
FFFE07FFF0
FFFE07FFF0
FFFE07FFF0
FFFE07FFF0
FFFE07FFF0
FFFE07FFF0
FFFE07FFF0
FFFE07FFF0
FFFE07FFF0
FFFE07FFF0
FFFE07FFF0
FFFE07FFF0
FFFE07FFF0
FFFE07FFF0
FFFE07FFF0
FFFE07FFF0
FFFE07FFF0
FFFE07FFF0
FFFE07FFF0
FFFE07FFF0
FFFE07FFF0
FFFE07FFF0
FFFE07FFF0
FFFE07FFF0
FFFE07FFF0
FFFE07FFF0
FFFE07FFF0
FFFE07FFF0
FFFE07FFF0
ENDCHAR
STARTCHAR 0044
ENCODING 68
SWIDTH 987 0
DWIDTH 48 0
BBX 41 49 3 -9
BITMAP
C00000000000
F00000000000
F80000000000
FE0000000000
FF8000000000
FFC000000000
FFF000000000
FFFC00000000
FFFE00000000
FFFF80000000
FFFFC0000000
FFFFF0000000
FFFFFC000000
FFFFFE000000
FFFFFF800000
FFFFFFE00000
FFFFFFF00000
FFFFFFFC0000
FFFFFFFF0000
FFFFFFFF8000
FFFFFFFFE000
FFFFFFFFF800
FFFFFFFFFC00
FFFFFFFFFF00
FFFFFFFFFF80
FFFFFFFFFF00
FFFFFFFFFC00
FFFFFFFFF800
FFFFFFFFE000
FFFFFFFF8000
FFFFFFFF0000
FFFFFFFC0000
FFFFFFF00000
FFFFFFE00000
FFFFFF800000
FFFFFE000000
FFFFFC000000
FFFFF0000000
FFFFC0000000
FFFF80000000
FFFE00000000
FFFC00000000
FFF000000000
FFC000000000
FF8000000000
FE0000000000
F80000000000
F00000000000
C00000000000
ENDCHAR
STARTCHAR 0045
ENCODING 69
SWIDTH 987 0
DWIDTH 48 0
BBX 47 47 0 -8
BITMAP
00001FF80000
0001FFFF0000
0007FFFFE000
001FFFFFF000
003FFFFFFC00
007FFFFFFE00
00FFFFFFFF00
01FFFFFFFF80
03FFFFFFFFC0
07FFFFFFFFE0
0FFFFFFFFFF0
0FFFFFFFFFF0
1FFFFFFFFFF8
1FFFF81FFFF8
3FFFE007FFFC
3FFF8001FFFC
7FFF0000FFFC
7FFE0000FFFE
7FFE00007FFE
7FFC00003FFE
7FFC00003FFE
7FFC00003FFE
FFFC00003FFE
FFFC00003FFE
FFFC00003FFE
7FFC00003FFE
7FFC00003FFE
7FFC00007FFE
7FFE00007FFE
7FFF0000FFFE
3FFF0000FFFC
3FFF8003FFFC
3FFFE007FFFC
1FFFF83FFFF8
1FFFFFFFFFF8
0FFFFFFFFFF0
0FFFFFFFFFE0
07FFFFFFFFE0
03FFFFFFFFC0
01FFFFFFFF80
00FFFFFFFF00
007FFFFFFE00
003FFFFFFC00
000FFFFFF000
0003FFFFC000
0000FFFF0000
00001FF00000
ENDCHAR
STARTCHAR 0046
ENCODING 70
SWIDTH 987 0
DWIDTH 48 0
BBX 46 47 1 -8
BITMAP
FFFFFFFFFFFC
FFFFFFFFFFFC
FFFFFFFFFFFC
FFFFFFFFFFFC
FFFFFFFFFFFC
FFFFFFFFFFFC
FFFFFFFFFFFC
FFFFFFFFFFFC
FFFFFFFFFFFC
FFFFFFFFFFFC
FFFFFFFFFFFC
FFFFFFFFFFFC
FFFFFFFFFFFC
FFFFFFFFFFFC
FFFFFFFFFFFC
FFFFFFFFFFFC
FFFFFFFFFFFC
FFFFFFFFFFFC
FFFFFFFFFFFC
FFFFFFFFFFFC
FFFFFFFFFFFC
FFFFFFFFFFFC
FFFFFFFFFFFC
FFFFFFFFFFFC
FFFFFFFFFFFC
FFFFFFFFFFFC
FFFFFFFFFFFC
FFFFFFFFFFFC
FFFFFFFFFFFC
FFFFFFFFFFFC
FFFFFFFFFFFC
FFFFFFFFFFFC
FFFFFFFFFFFC
FFFFFFFFFFFC
FFFFFFFFFFFC
FFFFFFFFFFFC
FFFFFFFFFFFC
FFFFFFFFFFFC
FFFFFFFFFFFC
FFFFFFFFFFFC
FFFFFFFFFFFC
FFFFFFFFFFFC
FFFFFFFFFFFC
FFFFFFFFFFFC
FFFFFFFFFFFC
FFFFFFFFFFFC
FFFFFFFFFFFC
ENDCHAR
STARTCHAR 0047
ENCODING 71
SWIDTH 987 0
DWIDTH 48 0
BBX 42 51 3 -10
BITMAP
FFE000000040
FFE0000000C0
FFE0000003C0
FFE000000FC0
FFE000001FC0
FFE000007FC0
FFE00001FFC0
FFE00003FFC0
FFE0000FFFC0
FFE0001FFFC0
FFE0007FFFC0
FFE001FFFFC0
FFE003FFFFC0
FFE00FFFFFC0
FFE03FFFFFC0
FFE07FFFFFC0
FFE1FFFFFFC0
FFE7FFFFFFC0
FFEFFFFFFFC0
FFFFFFFFFFC0
FFFFFFFFFFC0
FFFFFFFFFFC0
FFFFFFFFFFC0
FFFFFFFFFFC0
FFFFFFFFFFC0
FFFFFFFFFFC0
FFFFFFFFFFC0
FFFFFFFFFFC0
FFFFFFFFFFC0
FFFFFFFFFFC0
FFFFFFFFFFC0
FFFFFFFFFFC0
FFEFFFFFFFC0
FFE7FFFFFFC0
FFE1FFFFFFC0
FFE07FFFFFC0
FFE03FFFFFC0
FFE00FFFFFC0
FFE003FFFFC0
FFE001FFFFC0
FFE0007FFFC0
FFE0001FFFC0
FFE0000FFFC0
FFE00003FFC0
FFE00000FFC0
FFE000007FC0
FFE000001FC0
FFE000000FC0
FFE0000003C0
FFE0000000C0
FFE000000040
ENDCHAR
STARTCHAR 0048
ENCODING 72
SWIDTH 987 0
DWIDTH 48 0
BBX 47 45 0 -7
BITMAP
000000020002
0000000E0006
0000001E000E
0000003E003E
000000FE007E
000001FE00FE
000003FE03FE
00000FFE07FE
00001FFE0FFE
00003FFE3FFE
0000FFFE7FFE
0001FFF8FFFE
0003FFF3FFFE
000FFFE7FFFE
001FFFCFFFFE
003FFF3FFFFE
00FFFE7FFFFE
01FFFCFFFFFE
03FFF3FFFFFE
0FFFE7FFFFFE
1FFFCFFFFFFE
3FFF3FFFFFFE
FFFE7FFFFFFE
3FFF1FFFFFFE
1FFFCFFFFFFE
07FFE7FFFFFE
03FFF1FFFFFE
01FFFCFFFFFE
007FFE7FFFFE
003FFF1FFFFE
001FFFCFFFFE
000FFFE7FFFE
0003FFF1FFFE
0001FFFCFFFE
0000FFFE7FFE
00003FFE1FFE
00001FFE0FFE
00000FFE07FE
000003FE01FE
000001FE00FE
000000FE007E
0000003E001E
0000001E000E
0000000E0006
000000020002
ENDCHAR
STARTCHAR 0049
ENCODING 73
SWIDTH 987 0
DWIDTH 48 0
BBX 46 47 1 -8
BITMAP
F08000000000
F0C000000000
F0F000000000
F0FC00000000
F0FC00000000
F0FC00000000
F0FC00000000
F0FC10000000
F0FC1C000000
F0FC1F000000
F0FC1F800000
F0FC1FE00000
F0FC1FF00000
F0FC1FFC0000
F0FC1FFF0000
F0FC1FFF8000
F0FC1FFFE000
F0FC1FFFF800
F0FC1FFFFC00
F0FC1FFFFF00
F0FC1FFFFFC0
F0FC1FFFFFE0
F0FC1FFFFFF8
F0FC1FFFFFFC
F0FC1FFFFFF8
F0FC1FFFFFE0
F0FC1FFFFF80
F0FC1FFFFF00
F0FC1FFFFC00
F0FC1FFFF000
F0FC1FFFE000
F0FC1FFF8000
F0FC1FFF0000
F0FC1FFC0000
F0FC1FF00000
F0FC1FE00000
F0FC1F800000
F0FC1E000000
F0FC1C000000
F0FC10000000
F0FC00000000
F0FC00000000
F0FC00000000
F0FC00000000
F0F000000000
F0C000000000
F08000000000
ENDCHAR
STARTCHAR 004A
ENCODING 74
SWIDTH 987 0
DWIDTH 48 0
BBX 47 46 0 -7
BITMAP
000001000000
000001800000
000003C00000
000003C00000
000007E00000
00000FF00000
00001FF80000
00001FF80000
00003FFC0000
00007FFE0000
0000FFFF0000
0000FFFF0000
0001FFFF8000
0003FFFFC000
0007FFFFE000
0007FFFFE000
000FFFFFF000
001FFFFFF800
003FFFFFFC00
003FFFFFFC00
007FFFFFFE00
00FFFFFFFF00
01FFFFFFFF80
03FFFFFFFF80
03FFFFFFFFC0
07FFFFFFFFE0
0FFFFFFFFFF0
1FFFFFFFFFF0
1FFFFFFFFFF8
3FFFFFFFFFFC
7FFFFFFFFFFE
800000000000
000000000000
000000000000
000000000000
FFFFFFFFFFFE
FFFFFFFFFFFE
FFFFFFFFFFFE
FFFFFFFFFFFE
FFFFFFFFFFFE
FFFFFFFFFFFE
FFFFFFFFFFFE
FFFFFFFFFFFE
FFFFFFFFFFFE
FFFFFFFFFFFE
FFFFFFFFFFFE
ENDCHAR
STARTCHAR 004B
ENCODING 75
SWIDTH 987 0
DWIDTH 48 0
BBX 47 47 0 -7
BITMAP
0000000003C0
0000000007C0
000000000FC0
000000000FC0
000000001FC0
000000003FC0
000000003F80
000000007F00
000000007F00
00000000FE00
00000000FE00
00000001FC00
00000003FC00
00000003F800
0FFFFFFFF000
1FFFFFFFF000
1FFFFFFFE000
3FFFFFFFE000
7FFFFFFFF000
FFFFFFFFF800
1FFFFFFFF800
007FFFFFFC00
0003FFFFFC00
00001FFFFE00
000001FFFE00
000001FFFF00
000003FFFF80
000007FFFF80
000007F3FFC0
00000FE1FFC0
00000FE0FFE0
00001FC07FE0
00001F803FF0
00003F803FF8
00003F001FF8
001FFE000FFC
001FFE0007FC
003FFC0003FE
007FFE0001FE
007FFE0000FE
0003FE00007C
00007F00007C
00003F000038
00001F000010
00000F000000
000006000000
000006000000
ENDCHAR
STARTCHAR 004C
ENCODING 76
SWIDTH 987 0
DWIDTH 48 0
BBX 40 51 4 -10
BITMAP
0000000100
0000000100
0000000180
0000000380
00000003C0
00000003C0
001FFFC7C0
007FFFFFE0
01FFFFFFE0
03FFFFFFF0
07FFFFFFF0
0FFFFFFFF0
1FE03FFFF8
3F0007FFF8
380001FFFC
600001FFFC
800001FFFC
000003FFFE
000007FFFE
000007FFFF
00000FFFFE
00000FFE00
00001E0000
0000000000
0000000000
0000000000
0000000000
0000000000
0000F80000
007FF00000
7FFFF00000
FFFFE00000
7FFFC00000
7FFFC00000
7FFF800001
3FFF000006
3FFF80001C
1FFFE000F8
1FFFFC0FF8
1FFFFFFFF0
0FFFFFFFE0
0FFFFFFFC0
07FFFFFF00
07FFFFFE00
07E3FFF000
03C0000000
03C0000000
0180000000
0180000000
0100000000
0100000000
ENDCHAR
STARTCHAR 004D
ENCODING 77
SWIDTH 987 0
DWIDTH 48 0
BBX 47 40 0 -4
BITMAP
00003E000000
0003FFE00000
001FFFFC0000
003FFFFE0000
00FFFFFF8000
01FFFFFFC000
03FFC1FFE000
07FE003FF000
0FF8000FF800
0FE00007F800
1FC00003FC00
3F800001FC00
3F800000FE00
3F0000007E00
7F0000007F00
7E0000003F00
7E00001FFFFE
7E00000FFFFE
FC000007FFFC
FC000007FFF8
FC000003FFF0
FC000001FFE0
FE000000FFC0
7E0000007F80
7E0000003F80
7E0000003F00
7F0000001E00
3F0000000C00
3F8000000400
1FC000000000
1FE000000000
0FF000080000
0FF800180000
07FE007C0000
03FFFFFC0000
01FFFFFE0000
007FFFFE0000
003FFFFE0000
000FFFF80000
0003FFC00000
ENDCHAR
STARTCHAR 004E
ENCODING 78
SWIDTH 987 0
DWIDTH 48 0
BBX 47 34 0 -1
BITMAP
000000000060
0000000001F0
0000000003F8
0000000007FC
000000000FFE
000000001FFE
000000003FFE
000000007FFE
00000000FFFC
00000001FFF8
06000003FFF0
1F800007FFE0
3FC0000FFFC0
7FE0001FFF80
7FF0003FFF00
FFF8007FFE00
FFFC00FFFC00
7FFE01FFF800
3FFF03FFF000
1FFF87FFE000
0FFFCFFFC000
07FFFFFF8000
03FFFFFF0000
01FFFFFE0000
00FFFFFC0000
007FFFF80000
003FFFF00000
001FFFE00000
000FFFC00000
0007FF800000
0003FF000000
0001FE000000
0000FC000000
000078000000
ENDCHAR
STARTCHAR 004F
ENCODING 79
SWIDTH 987 0
DWIDTH 48 0
BBX 47 47 0 -8
BITMAP
1FE000000000
3FFF00000000
7FFFE0000000
7FFFFC000000
FFFFFF000000
7FFFFFC00000
7FFFFFE00000
3FFFFFF80000
1FFFFFFC0000
000FFFFF0000
0000FFFF8000
00003FFFC000
00000FFFE000
000003FFF000
3FE000FFF800
7FFE007FFC00
7FFF803FFC00
FFFFE01FFE00
FFFFF807FF00
7FFFFC03FF80
7FFFFE03FF80
3FFFFF01FFC0
07FFFFC0FFC0
001FFFC07FE0
0007FFE07FE0
0001FFF03FF0
00007FF81FF0
00003FF81FF8
00001FFC0FF8
00000FFE0FF8
000007FE0FFC
03E003FE07FC
0FF803FF07FC
1FFC01FF07FC
3FFE01FF03FE
7FFE00FF83FE
7FFF00FF83FE
7FFF00FF83FE
FFFF00FF83FE
FFFF007F83FE
7FFF007FC1FE
7FFF007FC1FE
7FFE007FC1FE
3FFE007F81FE
1FFC007F81FE
0FF8003F00FC
03E0001E0078
ENDCHAR
STARTCHAR 0050
ENCODING 80
SWIDTH 987 0
DWIDTH 48 0
BBX 44 50 2 -9
BITMAP
000006000000
0000FFF00000
0003FFFC0000
000FFFFF0000
003FFFFF8000
007FFFFFC000
00FFFFFFE000
00FFFFFFF000
01FFC03FF800
03FF000FFC00
03FE0007FC00
07FC0003FE00
07F80001FE00
0FF00001FE00
0FF00000FE00
0FF00000FF00
0FE00000FF00
0FE000007F00
0FE000007F00
0FE000007F00
0FE000007F00
0FE000007F00
0FE000007F00
FFFFFFFFFFF0
FFFFFFFFFFF0
FFFFFFFFFFF0
FFFFFFFFFFF0
FFFFFFFFFFF0
FFFFFFFFFFF0
FFFFF1FFFFF0
FFFFE07FFFF0
FFFFE07FFFF0
FFFFC07FFFF0
FFFFE07FFFF0
FFFFE07FFFF0
FFFFF0FFFFF0
FFFFF0FFFFF0
FFFFF0FFFFF0
FFFFF0FFFFF0
FFFFF0FFFFF0
FFFFF0FFFFF0
FFFFF0FFFFF0
FFFFF0FFFFF0
FFFFE0FFFFF0
FFFFFFFFFFF0
FFFFFFFFFFF0
FFFFFFFFFFF0
FFFFFFFFFFF0
FFFFFFFFFFF0
FFFFFFFFFFF0
ENDCHAR
STARTCHAR 0051
ENCODING 81
SWIDTH 987 0
DWIDTH 48 0
BBX 47 47 0 -8
BITMAP
003FFFFFFC00
003FFFFFFC00
003FFFFFFC00
003FFFFFFC00
003FFFFFFC00
003FFFFFFC00
003FFFFFFC00
003FFFFFFC00
003FFFFFFC00
003FFFFFFC00
003FFFFFFC00
003FFFFFFC00
003FFFFFFC00
003FFFFFFC00
003FFFFFFC00
003FFFFFFC00
003FFFFFFC00
000001800000
000001800000
000001800000
000001800000
000001800000
000001800000
000001800000
003FFFFFFE00
003FFFFFFE00
002000000600
002000000600
002000000600
002000000600
002000000600
FFFFF01FFFFE
FFFFF01FFFFE
FFFFF01FFFFE
FFFFF01FFFFE
FFFFF01FFFFE
FFFFF01FFFFE
FFFFF01FFFFE
FFFFF01FFFFE
FFFFF01FFFFE
FFFFF01FFFFE
FFFFF01FFFFE
FFFFF01FFFFE
FFFFF01FFFFE
FFFFF01FFFFE
FFFFF01FFFFE
FFFFF01FFFFE
ENDCHAR
STARTCHAR 0052
ENCODING 82
SWIDTH 987 0
DWIDTH 48 0
BBX 47 28 0 2
BITMAP
000030000000
000038000000
00003E000000
00001F000000
00001F800000
001FFFC1FC00
01FFFFF1FF80
07FFFFF9FFE0
0FFFFFF9FFF0
1FFFFFF9FFF8
3FFFFFE1FFF8
3FE01FC007FC
7F801F8001FE
7F003F0000FE
7E003C00007E
7E003800007E
FC000000003E
FC000000003E
7E000000007E
7E000000007E
7F00000000FE
7F80000001FE
3FF000000FFC
1FFFFFFFFFF8
1FFFFFFFFFF8
0FFFFFFFFFF0
03FFFFFFFFC0
01FFFFFFFF80
ENDCHAR
STARTCHAR 0053
ENCODING 83
SWIDTH 987 0
DWIDTH 48 0
BBX 48 39 0 -4
BITMAP
00000003C000
00000007E000
0000000FF000
0000001FF800
0000003FFC00
0000007FFE00
000000FFFF00
7FFFF1FFFF80
FFFFFBFFFFC0
FFFFF7FFFFE0
FFFFEFFFFFF0
FFFFDFFFFFF8
FFFFBFFFFFFC
FFFFBFF7FFFE
FFFFBFC7F1FE
FF003F07F0FE
FE003C07F01C
FE7FC1F7F7C1
FE7FFFF7F7FE
FCFFFFF7F7FE
FCFFFFF7F7FE
FCFFFFF7F7FE
FDFFFFF7F7FC
F9FFFFF7F7FC
F9FFFFF7F7FC
F9FFFFF7F7F8
F3FFFFF7F7F8
F3FFFFF7F7F8
F3FFFFF7F7F8
F7FFFFF7F7F0
E7FFFFF7F7F0
E7FFFFF807F0
E7FFFFFE3FF0
CFFFFFFFFFE0
CFFFFFFFFFE0
4FFFFFFFFFE0
1FFFFFFFFFC0
1FFFFFFFFFC0
0FFFFFFFFF80
ENDCHAR
STARTCHAR 0054
ENCODING 84
SWIDTH 987 0
DWIDTH 48 0
BBX 47 47 0 -8
BITMAP
00001FF80000
0001FFFF0000
0007FFFFE000
001FFFFFF000
003FFFFFFC00
007FFFFFFE00
01FFFFFFFF00
01FFF00FFF80
03FF8001FFC0
07FE00007FE0
0FFC00003FE0
0FFE00001FF0
1FFF00000FF8
3FFF800007F8
3FCFC00003FC
3F87E00003FC
7F83F00001FC
7F01F80001FE
7F00FC0000FE
7F007E0000FE
FF003F0000FE
FE001F8000FE
FE000FC000FE
FE0007E000FE
FE0003F000FE
FE0001F800FE
FF0000FC00FE
7F00007E00FE
7F00003F00FE
7F00001F81FE
7F80000FC1FC
3F800007E3FC
3FC00003F3F8
1FE00001FFF8
1FF00000FFF8
0FF800007FF0
0FFC00003FE0
07FE0000FFE0
03FF8003FFC0
01FFF01FFF80
00FFFFFFFF00
007FFFFFFE00
003FFFFFFC00
000FFFFFF000
0007FFFFC000
0000FFFF0000
00000FF00000
ENDCHAR
STARTCHAR 0055
ENCODING 85
SWIDTH 987 0
DWIDTH 48 0
BBX 47 42 0 -5
BITMAP
000000800000
000001C00000
000003C00000
000007C00000
00000FC00000
00001FC00000
00003FC00000
00007FC00000
00007FC00000
0000FFC00000
0001FFC00000
0003FFC00000
0007FFC00000
FFFFFFC00000
FFFFFFC00000
FFFFFFC00000
FFFFFFC00000
FFFFFFC00000
FFFFFFC00000
FFFFFFC3FFFE
FFFFFFC3FFFE
FFFFFFC3FFFE
FFFFFFC3FFFE
FFFFFFC3FFFE
FFFFFFC00000
FFFFFFC00000
FFFFFFC00000
FFFFFFC00000
FFFFFFC00000
7FFFFFC00000
0007FFC00000
0003FFC00000
0001FFC00000
0000FFC00000
00007FC00000
00003FC00000
00001FC00000
00000FC00000
000007C00000
000003C00000
000003C00000
000001C00000
ENDCHAR
STARTCHAR 0056
ENCODING 86
SWIDTH 987 0
DWIDTH 48 0
BBX 48 43 0 -6
BITMAP
000000E00000
000001E00000
000001E00000
000003E00000
000007E00000
00000FE00000
00001FE00000
00003FE00000
00007FE00000
0000FFE00000
0001FFE00000
0003FFE00000
0007FFE00000
7FFFFFE00F80
FFFFFFE00F80
FFFFFFE00F80
FFFFFFE00F80
FFFFFFE00F80
FFFFFFE00F80
FFFFFFE3FFFF
FFFFFFE3FFFF
FFFFFFE3FFFF
FFFFFFE3FFFF
FFFFFFE3FFFF
FFFFFFE00F80
FFFFFFE00F80
FFFFFFE00F80
FFFFFFE00F80
FFFFFFE00F80
7FFFFFE00F80
0007FFE00000
0003FFE00000
0001FFE00000
0000FFE00000
00007FE00000
00003FE00000
00001FE00000
00000FE00000
000007E00000
000003E00000
000001E00000
000000E00000
000000400000
ENDCHAR
STARTCHAR 0057
ENCODING 87
SWIDTH 987 0
DWIDTH 48 0
BBX 47 45 0 -6
BITMAP
00FF0000FF80
07FFC003FFE0
0FFFE007FFF0
1FFFF01FFFF8
3FFFF81FFFFC
7FFFFC3FFFFC
7FFFFC7FFFFE
7FFFFEFFFFFE
FFFFFEFFFFFE
FFFFFFFFFFFE
FFFFFFFFFFFE
7FFFFFFFFFFE
7FFFFFFFFFFE
7FFFFFFFFFFE
7FFFFFFFFFFE
3FFFFFFFFFFE
3FFFFFFFFFFC
1FFFFFFFFFF8
0FFFFFFFFFF8
0FFFFFFFFFF0
07FFFFFFFFE0
03FFFFFFFFC0
01FFFFFFFF80
00FFFFFFFF00
007FFFFFFF00
003FFFFFFC00
001FFFFFFC00
000FFFFFF800
0007FFFFF000
0003FFFFE000
0001FFFFC000
0000FFFF8000
00007FFF0000
00003FFE0000
00001FFC0000
00000FF80000
000007F00000
000007F00000
000003E00000
000003C00000
000001C00000
000001800000
000000800000
000000800000
000000800000
ENDCHAR
STARTCHAR 0058
ENCODING 88
SWIDTH 987 0
DWIDTH 48 0
BBX 40 51 4 -10
BITMAP
0018000000
007C000000
007C000000
007C000000
007C000000
007C000000
007C000000
007C000000
007C000000
007C000000
007C000000
007C000000
007C000000
007C000000
007C180000
007C3C0000
007C7E0000
007C7E3C00
007C7E3E00
007C7E3E1E
007C7E3E3E
387C7E3E3F
7C7C7E3E3F
FC7FFFFFFF
FC7FFFFFFF
FC7FFFFFFF
FC7FFFFFFF
FC7FFFFFFF
FC7FFFFFFF
FC7FFFFFFF
FC7FFFFFFF
FC7FFFFFFF
FFFFFFFFFF
FFFFFFFFFF
FFFFFFFFFF
FFFFFFFFFF
7FFFFFFFFF
7FFFFFFFFF
3FFFFFFFFF
1FFFFFFFFF
1FFFFFFFFF
0FFFFFFFFF
07FFFFFFFF
07FFFFFFFF
03FFFFFFFF
01FFFFFFFF
01FFFFFFFE
00FFFFFFFE
007FFFFFFE
007FFFFFFC
000FFFFFF0
ENDCHAR
STARTCHAR 0059
ENCODING 89
SWIDTH 987 0
DWIDTH 48 0
BBX 36 51 6 -10
BITMAP
0000600000
0000F00000
0000F00000
0000F00000
0000F00000
00F0F0E000
00F8F1F000
00F8F1F000
00F8F1F000
00F8F1F000
00F8F1F000
00F8F1F1E0
00F8F1F1F0
00F8F1F1F0
00F8F1F1F0
00F8F1F1F0
00F8F1F1F0
00F8F1F1F0
00F8F1F1F0
00F8F1F1F0
00F8F1F1F0
00F8F1F1F0
00F8F1F1F0
00F8F1F1F0
70F8F1F1F0
F8F9F9F3F0
F8FFFFFFF0
F8FFFFFFF0
F8FFFFFFF0
F8FFFFFFF0
F8FFFFFFF0
F8FFFFFFF0
F8FFFFFFF0
F9FFFFFFF0
FFFFFFFFF0
FFFFFFFFF0
FFFFFFFFF0
FFFFFFFFF0
7FFFFFFFF0
3FFFFFFFF0
3FFFFFFFF0
1FFFFFFFF0
0FFFFFFFF0
0FFFFFFFF0
07FFFFFFF0
07FFFFFFF0
03FFFFFFF0
01FFFFFFE0
01FFFFFFE0
00FFFFFFC0
003FFFFE00
ENDCHAR
STARTCHAR 005A
ENCODING 90
SWIDTH 987 0
DWIDTH 48 0
BBX 48 48 0 -8
BITMAP
000000000100
0000000003C0
0000002003C0
0000007001E0
000000F801E0
000001F801F0
000001F800F0
000003F800F0
000007F870F8
00000FF87078
00001FF87878
00003FF8787C
00007FF8787C
0000FFF83C3C
0001FFF83C3C
0003FFF83C3E
7FFFFFF83C3E
FFFFFFF83E3E
FFFFFFF83E3E
FFFFFFF83E1E
FFFFFFF81E1E
FFFFFFF81E1E
FFFFFFF81E1F
FFFFFFF81E1F
FFFFFFF81E1F
FFFFFFF81E1F
FFFFFFF81E1E
FFFFFFF81E1E
FFFFFFF81E1E
FFFFFFF83E3E
FFFFFFF83E3E
FFFFFFF83E3E
FFFFFFF83C3E
FFFFFFF83C3E
3FFFFFF83C3C
0003FFF87C3C
0001FFF8787C
0000FFF8787C
00007FF87078
00003FF8F078
00001FF860F8
00000FF800F0
000007F800F0
000003F801E0
000001F801E0
000000F803C0
0000007803C0
000000300180
ENDCHAR
STARTCHAR 005B
ENCODING 91
SWIDTH 987 0
DWIDTH 48 0
BBX 46 46 1 -7
BITMAP
800000000000
C00000000000
F00000000000
FC0000000000
FF0000000000
FFC000000000
FFF000000000
FFFC00000000
FFFF00000000
FFFFC0000000
FFFFF0000000
FFFFFC000000
FFFFFF000000
FFFFFFC00000
FFFFFFF00000
FFFFFFFC0000
FFFFFFFF0000
FFFFFFFFC000
FFFFFFFFF000
FFFFFFFFFC00
FFFFFFFFFF00
FFFFFFFFFFC0
FFFFFFFFFFF0
FFFFFFFFFFFC
FFFFFFFFFFF0
FFFFFFFFFFC0
FFFFFFFFFF00
FFFFFFFFFC00
FFFFFFFFF000
FFFFFFFFC000
FFFFFFFF0000
FFFFFFFC0000
FFFFFFF00000
FFFFFFC00000
FFFFFF000000
FFFFFC000000
FFFFF0000000
FFFFC0000000
FFFF00000000
FFFC00000000
FFF000000000
FFC000000000
FF0000000000
FC0000000000
F00000000000
C00000000000
ENDCHAR
STARTCHAR 005C
ENCODING 92
SWIDTH 987 0
DWIDTH 48 0
BBX 47 47 0 -8
BITMAP
FFFFFFFFFFFE
7FFFFFFFFFFE
3FFFFFFFFFFC
3FFFFFFFFFFC
1FFFFFFFFFF8
1FFFFFFFFFF8
0FFFFFFFFFF0
0FFFFFFFFFF0
07FFFFFFFFE0
07FFFFFFFFE0
03FFFFFFFFC0
03FFFFFFFFC0
01FFFFFFFF80
01FFFFFFFF80
00FFFFFFFF00
00FFFFFFFF00
007FFFFFFE00
007FFFFFFE00
003FFFFFFC00
003FFFFFFC00
001FFFFFF800
001FFFFFF800
000FFFFFF000
000FFFFFF000
0007FFFFE000
0007FFFFE000
0003FFFFC000
0003FFFFC000
0001FFFF8000
0001FFFF8000
0000FFFF0000
0000FFFF0000
00007FFE0000
00007FFE0000
00003FFC0000
00003FFC0000
00001FF80000
00001FF80000
00000FF00000
00000FF00000
000007E00000
000007E00000
000003C00000
000003C00000
000001800000
000001800000
000001000000
ENDCHAR
STARTCHAR 005D
ENCODING 93
SWIDTH 987 0
DWIDTH 48 0
BBX 47 47 0 -8
BITMAP
000000000002
000000000006
00000000001E
00000000007E
0000000001FE
0000000007FE
000000001FFE
000000007FFE
00000003FFFE
0000000FFFFE
0000003FFFFE
000000FFFFFE
000003FFFFFE
00000FFFFFFE
00003FFFFFFE
0000FFFFFFFE
0003FFFFFFFE
000FFFFFFFFE
003FFFFFFFFE
00FFFFFFFFFE
03FFFFFFFFFE
0FFFFFFFFFFE
3FFFFFFFFFFE
FFFFFFFFFFFE
3FFFFFFFFFFE
0FFFFFFFFFFE
03FFFFFFFFFE
00FFFFFFFFFE
003FFFFFFFFE
000FFFFFFFFE
0003FFFFFFFE
0000FFFFFFFE
00003FFFFFFE
00000FFFFFFE
000003FFFFFE
000000FFFFFE
0000003FFFFE
0000000FFFFE
00000003FFFE
00000000FFFE
000000003FFE
000000000FFE
0000000003FE
0000000000FE
00000000003E
00000000000E
000000000002
ENDCHAR
STARTCHAR 005E
ENCODING 94
SWIDTH 987 0
DWIDTH 48 0
BBX 47 17 0 7
BITMAP
008000000100
010000000100
030000000080
0700000000C0
0E00000000E0
1E0000000070
3FFFFFFFFFF8
7FFFFFFFFFFC
FFFFFFFFFFFE
7FFFFFFFFFFC
3FFFFFFFFFF8
1E0000000070
0E00000000E0
0700000000C0
030000000080
010000000100
008000000100
ENDCHAR
STARTCHAR 005F
ENCODING 95
SWIDTH 987 0
DWIDTH 48 0
BBX 18 51 15 -10
BITMAP
008000
00C000
01E000
03F000
07F800
0FFC00
1FFE00
39EF00
C1E180
01E040
01E000
01E000
01E000
01E000
01E000
01E000
01E000
01E000
01E000
01E000
01E000
01E000
01E000
01E000
01E000
01E000
01E000
01E000
01E000
01E000
01E000
01E000
01E000
01E000
01E000
01E000
01E000
01E000
01E000
01E000
01E000
01E040
E1E180
3DEF00
1FFE00
0FFC00
07F800
03F000
01E000
00C000
008000
ENDCHAR
STARTCHAR 0060
ENCODING 96
SWIDTH 987 0
DWIDTH 48 0
BBX 18 51 15 -10
BITMAP
01E000
01E000
01E000
01E000
01E000
01E000
01E000
01E000
01E000
01E000
01E000
01E000
01E000
01E000
01E000
01E000
01E000
01E000
01E000
01E000
01E000
01E000
01E000
01E000
01E000
01E000
01E000
01E000
01E000
01E000
01E000
01E000
01E000
01E000
01E000
01E000
01E000
01E000
01E000
01E000
01E000
81E040
61E180
3DEF00
1FFE00
0FFC00
07F800
03F000
01E000
00C000
004000
ENDCHAR
STARTCHAR 0061
ENCODING 97
SWIDTH 987 0
DWIDTH 48 0
BBX 48 27 0 2
BITMAP
000000000080
000000000080
000000000180
0000FFC00380
0007FFF803C0
000FFFFE07C0
003FFFFF87C0
007FFFFFCFC0
00FFFFFFFFE0
01FFFFFFFFE0
03FFFFFFFFE0
03FFFFFFFFE0
07FFFFFFFFF0
0FF80FFFFFF0
0FC001FFFFF0
1F00007FFFF0
1C00003FFFF8
3800000FFFF8
2000001FFFF8
4000003FFFFC
8000007FFFFC
000000FFFFFC
000001FFFFFC
000001FFFFFE
000003FFFFFE
000007FFFFFE
00000FFFFFFF
ENDCHAR
STARTCHAR 0062
ENCODING 98
SWIDTH 987 0
DWIDTH 48 0
BBX 46 27 1 2
BITMAP
020000000000
020000000000
030000000000
038001FC0000
03801FFF8000
07C07FFFE000
07C1FFFFF000
07E7FFFFF800
07FFFFFFFC00
0FFFFFFFFE00
0FFFFFFFFF00
0FFFFFFFFF80
0FFFFFFFFFC0
1FFFFFF0FFC0
1FFFFF000FE0
1FFFFC0003E0
3FFFF80000F0
3FFFE0000030
3FFFF0000018
3FFFF8000008
7FFFFC000004
7FFFFE000000
7FFFFE000000
7FFFFF000000
FFFFFF800000
FFFFFFC00000
FFFFFFE00000
ENDCHAR
STARTCHAR 0063
ENCODING 99
SWIDTH 987 0
DWIDTH 48 0
BBX 46 50 1 -9
BITMAP
00001FE00000
00003FF00000
00003FF80000
00003FF80000
00003FF80000
00003FF80000
00003FF80000
00003FF80000
00003FF80000
00003FF80000
00003FF80000
00003FF80000
00003FF80000
00003FF80000
00003FF80000
00003FF80000
00003FF80000
00003FF80000
00003FF80000
00003FF80000
00003FF80000
00003FF80000
00003FF80000
7C003FF800F8
FF003FF807FC
FFC03FF81FFC
FFF03FF87FFC
FFFC3FF9FFFC
FFFFBFFFFFFC
FFFFFFFFFFF8
7FFFFFFFFFF8
3FFFFFFFFFF0
1FFFFFFFFFE0
0FFFFFFFFFC0
07FFFFFFFF80
03FFFFFFFF00
01FFFFFFFE00
00FFFFFFFC00
007FFFFFF800
003FFFFFF000
001FFFFFE000
000FFFFFC000
0007FFFF8000
0003FFFF0000
0001FFFE0000
0000FFFC0000
00007FF80000
00003FF00000
00001FE00000
00000F800000
ENDCHAR
STARTCHAR 0064
ENCODING 100
SWIDTH 987 0
DWIDTH 48 0
BBX 46 47 1 -8
BITMAP
000000000F00
000000001F80
000000003FC0
000000007FE0
04000000FFF0
3E000001FFF8
7F000003FFFC
FF800007FFFC
FF80000FFFFC
FFC0001FFFFC
FFC0003FFFF8
FFE0007FFFF0
FFE000FFFFE0
FFE001FFFFC0
FFF003FFFF80
FFF007FFFF00
FFF00FFFFE00
FFF81FFFFC00
FFF83FFFF800
FFF87FFFF000
FFFCFFFFE000
FFFDFFFFC000
FFFFFFFF8000
FFFFFFFF0000
FFFFFFFE0000
FFFFFFFC0000
FFFFFFF80000
FFFFFFF00000
FFFFFFE00000
FFFFFFC00000
FFFFFF800000
FFFFFF000000
FFFFFF800000
FFFFFFE00000
FFFFFFFC0000
FFFFFFFF8000
FFFFFFFFF000
FFFFFFFFFC00
FFFFFFFFFF00
FFFFFFFFFF80
FFFFFFFFFFC0
FFFFFFFFFFC0
FFFFFFFFFFC0
FFFFFFFFFF80
7FFFFFFFFF80
3FFFFFFFFF00
1FFFFFFFFE00
ENDCHAR
STARTCHAR 0065
ENCODING 101
SWIDTH 987 0
DWIDTH 48 0
BBX 46 47 1 -8
BITMAP
03C000000000
07E000000000
0FF000000000
1FF800000000
3FFC00000080
7FFE000003F0
FFFF000003F8
FFFF800007F8
FFFFC0000FFC
FFFFE0000FFC
7FFFF0000FFC
3FFFF8001FFC
1FFFFC001FFC
0FFFFE003FFC
07FFFF003FFC
03FFFF803FFC
01FFFFC07FFC
00FFFFE07FFC
007FFFF07FFC
003FFFF87FFC
001FFFFCFFFC
000FFFFEFFFC
0007FFFFFFFC
0003FFFFFFFC
0001FFFFFFFC
0000FFFFFFFC
00007FFFFFFC
00003FFFFFFC
00001FFFFFFC
00000FFFFFFC
000007FFFFFC
000003FFFFFC
000007FFFFFC
00003FFFFFFC
0001FFFFFFFC
000FFFFFFFFC
003FFFFFFFFC
01FFFFFFFFFC
03FFFFFFFFFC
0FFFFFFFFFFC
0FFFFFFFFFFC
0FFFFFFFFFFC
0FFFFFFFFFFC
0FFFFFFFFFFC
07FFFFFFFFF8
03FFFFFFFFF0
01FFFFFFFFE0
ENDCHAR
STARTCHAR 0066
ENCODING 102
SWIDTH 987 0
DWIDTH 48 0
BBX 47 44 0 -6
BITMAP
00000F000000
00001FC00000
00003FC00000
00007FC00000
0000FFC00000
0001FFC00000
0003FF800000
0007FF800000
000FFF000000
001FFF000000
003FFE000000
007FFE000000
00FFFC000000
01FFFC000000
03FFF8000000
07FFF8000000
0FFFF8000000
1FFFFFFFFFFC
3FFFFFFFFFFE
7FFFFFFFFFFE
7FFFFFFFFFFE
FFFFFFFFFFFE
FFFFFFFFFFFE
7FFFFFFFFFFE
7FFFFFFFFFFE
3FFFFFFFFFFE
1FFFFFFFFFFE
0FFFFFFFFFFC
07FFF8000000
03FFF8000000
01FFFC000000
00FFFC000000
007FFE000000
003FFE000000
001FFF000000
000FFF000000
0007FF800000
0003FF800000
0001FFC00000
0000FFC00000
00007FC00000
00003FC00000
00001FC00000
00000F800000
ENDCHAR
STARTCHAR 0067
ENCODING 103
SWIDTH 987 0
DWIDTH 48 0
BBX 48 43 0 -6
BITMAP
000001F00000
000003FC0000
000003FE0000
000003FF0000
000003FF8000
000003FFC000
000001FFE000
000001FFF000
000000FFF800
000000FFFC00
0000007FFC00
0000007FFE00
0000003FFF00
0000003FFF80
0000001FFFC0
0000001FFFE0
1FFFFFFFFFF0
7FFFFFFFFFF8
7FFFFFFFFFFC
FFFFFFFFFFFE
FFFFFFFFFFFE
FFFFFFFFFFFF
FFFFFFFFFFFE
FFFFFFFFFFFE
FFFFFFFFFFFC
7FFFFFFFFFF8
3FFFFFFFFFF0
0000001FFFE0
0000001FFFC0
0000003FFF80
0000003FFF00
0000007FFE00
0000007FFC00
000000FFF800
000000FFF000
000001FFE000
000001FFC000
000003FF8000
000003FF0000
000003FE0000
000003FC0000
000003F80000
000001F00000
ENDCHAR
STARTCHAR 0068
ENCODING 104
SWIDTH 987 0
DWIDTH 48 0
BBX 46 51 1 -10
BITMAP
000003000000
00000FC00000
00001FE00000
00003FF00000
00007FF80000
0000FFFC0000
0001FFFE0000
0003FFFF0000
0007FFFF8000
000FFFFFC000
001FFFFFE000
003FFFFFF000
007FFFFFF800
00FFFFFFFC00
01FFFFFFFE00
03FFFFFFFF00
07FFFFFFFF80
0FFFFFFFFFC0
1FFFFFFFFFE0
3FFFFFFFFFF0
7FFFFFFFFFF8
FFFFFFFFFFFC
FFFF3FFBFFFC
FFFC3FF8FFFC
FFF03FF83FFC
FFC03FF80FFC
FF003FF803F8
78003FF80070
00003FF80000
00003FF80000
00003FF80000
00003FF80000
00003FF80000
00003FF80000
00003FF80000
00003FF80000
00003FF80000
00003FF80000
00003FF80000
00003FF80000
00003FF80000
00003FF80000
00003FF80000
00003FF80000
00003FF80000
00003FF80000
00003FF80000
00003FF80000
00003FF80000
00003FF00000
000007C00000
ENDCHAR
STARTCHAR 0069
ENCODING 105
SWIDTH 987 0
DWIDTH 48 0
BBX 47 47 0 -8
BITMAP
1FFFFFFFFF80
3FFFFFFFFFC0
7FFFFFFFFFE0
7FFFFFFFFFE0
FFFFFFFFFFE0
FFFFFFFFFFE0
FFFFFFFFFFE0
FFFFFFFFFFC0
FFFFFFFFFF80
FFFFFFFFFE00
FFFFFFFFF800
FFFFFFFFC000
FFFFFFFE0000
FFFFFFF00000
FFFFFF800000
FFFFFF800000
FFFFFFC00000
FFFFFFE00000
FFFFFFF00000
FFFFFFF80000
FFFFFFFC0000
FFFFFFFE0000
FFFFFFFF0000
FFFFFFFF8000
FFFFFFFFC000
FFFEFFFFE000
FFFE7FFFF000
FFFC3FFFF800
FFFC1FFFFC00
FFF80FFFFE00
FFF807FFFF00
FFF803FFFF80
FFF801FFFFC0
FFF000FFFFE0
FFF0007FFFF0
FFE0003FFFF8
FFE0001FFFFC
FFE0000FFFFE
7FC00007FFFE
7FC00003FFFE
3F800001FFFE
1F000000FFFE
020000007FFC
000000003FF8
000000001FF0
000000000FE0
0000000007C0
ENDCHAR
STARTCHAR 006A
ENCODING 106
SWIDTH 987 0
DWIDTH 48 0
BBX 47 48 0 -8
BITMAP
003FFFFFFFC0
01FFFFFFFFF8
03FFFFFFFFFC
07FFFFFFFFFE
07FFFFFFFFFE
07FFFFFFFFFE
07FFFFFFFFFE
07FFFFFFFFFE
03FFFFFFFFFE
01FFFFFFFFFE
007FFFFFFFFE
001FFFFFFFFE
0003FFFFFFFE
00007FFFFFFE
00000FFFFFFE
000001FFFFFE
000003FFFFFE
000007FFFFFE
00000FFFFFFE
00001FFFFFFE
00003FFFFFFE
00007FFFFFFE
0000FFFFFFFE
0001FFFFFFFE
0003FFFFFFFE
0007FFFFFFFE
000FFFFF7FFE
001FFFFE7FFE
003FFFFC3FFE
007FFFF83FFE
00FFFFF03FFE
01FFFFE01FFE
03FFFFC01FFE
07FFFF801FFE
0FFFFF000FFE
1FFFFE000FFE
3FFFFC000FFE
7FFFF80007FE
7FFFF00007FE
FFFFE00003FE
FFFFC00003FE
7FFF800001FC
7FFF000000F8
3FFE00000000
1FFC00000000
0FF800000000
07F000000000
03E000000000
ENDCHAR
STARTCHAR 006B
ENCODING 107
SWIDTH 987 0
DWIDTH 48 0
BBX 48 41 0 -5
BITMAP
000000200000
000000100000
000000180000
0000001C0000
0000001E0000
0000001F0000
0000001F8000
0000001FC000
0000001FE000
0000001FF000
00007FFFF800
0007FFFFFC00
001FFFFFFE00
007FFFFFFF00
01FFFFFFFF80
03FFFFFFFFC0
07FFFFFFFFE0
07FFFFFFFFF0
0FFFFFFFFFF8
1FFFFFFFFFFC
1FFFFFFFFFFF
3FFFFFFFFFFE
3FFFC3FFFFF8
3FFC00FFFFE0
7FF000FFFF80
7FC000FFFF00
7F8001FFFC00
7F0001FFF000
7E0001FFC000
FC0001FF8000
FC0001FE0000
F80001F80000
F00003F00000
F00003C00000
E00003000000
E00002000000
C00000000000
400000000000
400000000000
400000000000
800000000000
ENDCHAR
STARTCHAR 006C
ENCODING 108
SWIDTH 1090 0
DWIDTH 53 0
BBX 52 45 0 -7
BITMAP
00000100000000
00000200000000
00000600000000
00000E00000000
00001E00000000
00003E00000000
00007E00000000
0000FE00000000
0001FE00000000
0003FE00000000
0007FE00000000
000FFFFFC00000
001FFFFFFC0000
003FFFFFFF0000
007FFFFFFFC000
00FFFFFFFFF000
01FFFFFFFFF800
03FFFFFFFFFC00
07FFFFFFFFFE00
0FFFFFFFFFFF00
1FFFFFFFFFFF80
3FFFFFFFFFFF80
FFFFFFFFFFFFC0
7FFFFFFFFFFFC0
1FFFFFFFFFFFE0
07FFFFC00FFFE0
03FFFFC001FFE0
00FFFFE0007FE0
003FFFE0003FF0
000FFFE0001FF0
0007FFE0000FF0
0001FFE00007F0
00007FE00003F0
00003FF00001F0
00000FF00001F0
000003F00000F0
000000F00000F0
00000070000070
00000010000070
00000008000030
00000000000030
00000000000010
00000000000010
00000000000010
00000000000010
ENDCHAR
STARTCHAR 006D
ENCODING 109
SWIDTH 987 0
DWIDTH 48 0
BBX 42 51 3 -10
BITMAP
000FFFF80000
000FFFF80000
000FFFF80000
000FFFF80000
000FFFF80000
000FFFF80000
000FFFF80000
000FFFF80000
000FFFF80000
000FFFF80000
000FFFF80000
000FFFF80000
000FFFF80000
000FFFF80000
000FFFF80000
000FFFF80000
000FFFF80000
000FFFF80000
000FFFF80000
000FFFF80000
000FFFF80000
000FFFF80000
000FFFF80000
000FFFF80000
000FFFF80000
000FFFF80000
000FFFF80000
000FFFF80000
FFFFFFFFFFC0
7FFFFFFFFF00
3FFFFFFFFF00
1FFFFFFFFE00
0FFFFFFFFC00
07FFFFFFF800
03FFFFFFF000
01FFFFFFE000
00FFFFFFC000
007FFFFF8000
003FFFFF0000
001FFFFE0000
000FFFFC0000
000FFFF80000
0007FFF00000
0003FFF00000
0001FFE00000
0000FFC00000
00007F800000
00003F000000
00001E000000
00000C000000
000008000000
ENDCHAR
STARTCHAR 006E
ENCODING 110
SWIDTH 987 0
DWIDTH 48 0
BBX 47 39 0 -4
BITMAP
000004000000
000008000000
000018000000
000078000000
0000F8000000
0001F8000000
0003F8000000
0007F8000000
000FF8000000
001FF8000000
003FF8000000
007FFFFFFFFE
00FFFFFFFFFE
01FFFFFFFFFE
03FFFFFFFFFE
07FFFFFFFFFE
1FFFFFFFFFFE
3FFFFFFFFFFE
7FFFFFFFFFFE
FFFFFFFFFFFE
3FFFFFFFFFFE
1FFFFFFFFFFE
0FFFFFFFFFFE
07FFFFFFFFFE
03FFFFFFFFFE
01FFFFFFFFFE
00FFFFFFFFFE
007FF8000000
003FF8000000
001FF8000000
000FF8000000
0007F8000000
0001F8000000
0000F8000000
000078000000
000038000000
000018000000
000008000000
000004000000
ENDCHAR
STARTCHAR 006F
ENCODING 111
SWIDTH 987 0
DWIDTH 48 0
BBX 47 39 0 -4
BITMAP
000000200000
000000300000
000000380000
0000003C0000
0000003E0000
0000003F0000
0000003F8000
0000003FE000
0000003FF000
0000003FF800
0000003FFC00
FFFFFFFFFE00
FFFFFFFFFF00
FFFFFFFFFF80
FFFFFFFFFFC0
FFFFFFFFFFE0
FFFFFFFFFFF0
FFFFFFFFFFF8
FFFFFFFFFFFC
FFFFFFFFFFFE
FFFFFFFFFFFC
FFFFFFFFFFF8
FFFFFFFFFFF0
FFFFFFFFFFE0
FFFFFFFFFFC0
FFFFFFFFFF80
FFFFFFFFFF00
0000003FFE00
0000003FFC00
0000003FF000
0000003FE000
0000003FC000
0000003F8000
0000003F0000
0000003E0000
0000003C0000
000000380000
000000300000
000000200000
ENDCHAR
STARTCHAR 0070
ENCODING 112
SWIDTH 987 0
DWIDTH 48 0
BBX 42 51 3 -10
BITMAP
000008000000
00000C000000
00001E000000
00003F000000
00007F800000
0000FFC00000
0001FFE00000
0003FFF00000
0003FFF00000
0007FFF80000
000FFFFC0000
001FFFFE0000
003FFFFF0000
007FFFFF8000
00FFFFFFC000
01FFFFFFE000
03FFFFFFF000
07FFFFFFF800
0FFFFFFFFC00
1FFFFFFFFE00
3FFFFFFFFF00
7FFFFFFFFF00
FFFFFFFFFFC0
000FFFF80000
000FFFF80000
000FFFF80000
000FFFF80000
000FFFF80000
000FFFF80000
000FFFF80000
000FFFF80000
000FFFF80000
000FFFF80000
000FFFF80000
000FFFF80000
000FFFF80000
000FFFF80000
000FFFF80000
000FFFF80000
000FFFF80000
000FFFF80000
000FFFF80000
000FFFF80000
000FFFF80000
000FFFF80000
000FFFF80000
000FFFF80000
000FFFF80000
000FFFF80000
000FFFF80000
000FFFF80000
ENDCHAR
STARTCHAR 0071
ENCODING 113
SWIDTH 987 0
DWIDTH 48 0
BBX 42 51 3 -10
BITMAP
000000080000
0000000C0000
0000000C0000
0000001E0000
0000001E0000
0000003F0000
0000007F0000
0000007F8000
000000FFC000
000000FFC000
000001FFE000
000001FFE000
000003FFF000
000007FFF000
FF0007FFF800
FF000FFFFC00
FF000FFFFC00
FF001FFFFE00
FF003FFFFE00
FF003FFFFF00
FF007FFFFF80
FF007FFFFF80
FF00FFFFFFC0
FF01FFFFFFC0
FF00007F8000
FF00007F8000
FF00007F8000
FF00007F8000
FF00007F8000
FF00007F8000
FF00007F8000
FF00007F8000
FF00007F8000
FF00007F8000
FF00007F8000
FF00007F8000
FF0000FF8000
FF0000FF0000
FF8001FF0000
FFC001FF0000
7FC003FE0000
7FF00FFE0000
3FFE7FFC0000
1FFFFFFC0000
1FFFFFF80000
0FFFFFF00000
07FFFFE00000
01FFFFC00000
00FFFF000000
003FFC000000
000080000000
ENDCHAR
STARTCHAR 0072
ENCODING 114
SWIDTH 987 0
DWIDTH 48 0
BBX 47 41 0 -5
BITMAP
000002000000
00000C000000
00001C000000
00007C000000
0001FC000000
0007FC000000
000FFC000000
003FFC000000
00FFFC000000
03FFFFFF8000
07FFFFFFFC00
1FFFFFFFFF00
FFFFFFFFFF80
7FFFFFFFFFC0
1FFFFFFFFFE0
07FFFFFFFFF0
03FFFFFFFFF8
00FFFC001FFC
003FFC0007FC
000FFC0003FC
0007FC0001FE
0001FC0001FE
00007C0000FE
00001C0000FE
00000C0000FE
0000020000FE
0000000000FE
0000000000FE
0000000001FE
0000000001FE
0000000003FC
0000000007FC
000000001FFC
0007FFFFFFF8
0007FFFFFFF0
0007FFFFFFE0
0007FFFFFFC0
0007FFFFFF80
0007FFFFFF00
0007FFFFFC00
0007FFFFC000
ENDCHAR
STARTCHAR 0073
ENCODING 115
SWIDTH 987 0
DWIDTH 48 0
BBX 47 37 0 -3
BITMAP
00001FF00000
0003FFFF8000
000FFFFFF000
007FFFFFFC00
00FFFFFFFF00
03FFFFFFFF80
07FFFFFFFFE0
0FFFFFFFFFF0
1FFFFFFFFFF8
3FFFFFFFFFF8
3FFFFFFFFFFC
7FFFFFFFFFFC
7FFFFFFFFFFE
7FFFFFFFFFFE
FFFFFFFFFFFE
FFFFFFFFFFFE
FFFFFFFFFFFE
FFFFFFFFFFFE
7FFFFFFFFFFE
7FFFFFFFFFFE
7FFFFFFFFFFC
3FFFFFFFFFFC
3FFFFFFFFFF8
1FFFFFFFFFF8
0FFFFFFFFFF0
07FFFFFFFFC0
03FFFFFFFF80
00FFFFFFFF00
007FFFFFFC00
001FFFFFE000
0003FFFF0000
00007FC00000
00007E000000
00007C000000
0000F8000000
0001E0000000
000700000000
ENDCHAR
STARTCHAR 0074
ENCODING 116
SWIDTH 987 0
DWIDTH 48 0
BBX 47 39 0 -4
BITMAP
7FFFFFFFFFFE
7FFFFFFFFFFE
FFFFFFFFFFFE
FFFFFFFFFFFE
FFFFFFFFFFFE
FFFFFFFFFFFE
FFFFFFFFFFFE
FFFFFFFFFFFE
FFFFFFFFFFFE
FFFFFFFFFFFE
FFFFFFFFFFFE
FFFFFFFFFFFE
FFFFFFFFFFFE
FFFFFFFFFFFE
FFFFFFFFFFFE
FFFFFFFFFFFE
FFFFFFFFFFFE
FFFFFFFFFFFE
FFFFFFFFFFFE
FFFFFFFFFFFE
FFFFFFFFFFFE
FFFFFFFFFFFE
FFFFFFFFFFFE
FFFFFFFFFFFE
FFFFFFFFFFFE
FFFFFFFFFFFE
FFFFFFFFFFFE
FFFFFFFFFFFE
7FFFFFFFFFFE
7FFFFFFFFFFC
00000FE00000
00000F800000
00001F000000
00001E000000
00003C000000
000038000000
000070000000
000040000000
000080000000
ENDCHAR
STARTCHAR 0075
ENCODING 117
SWIDTH 987 0
DWIDTH 48 0
BBX 47 37 0 -3
BITMAP
00003FFC0000
0003FFFFC000
001FFFFFF800
007FFFFFFE00
01FFFFFFFF00
03FFFFFFFFC0
07FFFFFFFFE0
0FFFFFFFFFF0
1FFFFFFFFFF8
3FFFFFFFFFFC
7FFFFFFFFFFC
7FFFFFFFFFFE
7FFFFFFFFFFE
FFFFFFFFFFFE
FFFFFFFFFFFE
FFFFFFFFFFFE
FFFFFFFFFFFE
FFFFFFFFFFFE
FFFFFFFFFFFE
7FFFFFFFFFFE
7FFFFFFFFFFC
3FFFFFFFFFFC
3FFFFFFFFFF8
1FFFFFFFFFF0
0FFFFFFFFFF0
07FFFFFFFFE0
01FFFFFFFF80
00FFFFFFFF00
003FFFFFFC00
0007FFFFF000
0000FFFF8000
000003FE0000
0000007E0000
0000003E0000
0000001F0000
000000078000
00000000E000
ENDCHAR
STARTCHAR 0076
ENCODING 118
SWIDTH 987 0
DWIDTH 48 0
BBX 47 39 0 -4
BITMAP
7FFFFFFFFFFC
7FFFFFFFFFFE
FFFFFFFFFFFE
FFFFFFFFFFFE
FFFFFFFFFFFE
FFFFFFFFFFFE
FFFFFFFFFFFE
FFFFFFFFFFFE
FFFFFFFFFFFE
FFFFFFFFFFFE
FFFFFFFFFFFE
FFFFFFFFFFFE
FFFFFFFFFFFE
FFFFFFFFFFFE
FFFFFFFFFFFE
FFFFFFFFFFFE
FFFFFFFFFFFE
FFFFFFFFFFFE
FFFFFFFFFFFE
FFFFFFFFFFFE
FFFFFFFFFFFE
FFFFFFFFFFFE
FFFFFFFFFFFE
FFFFFFFFFFFE
FFFFFFFFFFFE
FFFFFFFFFFFE
FFFFFFFFFFFE
FFFFFFFFFFFE
7FFFFFFFFFFE
7FFFFFFFFFFC
000007F00000
000003F00000
000001F00000
000000780000
000000380000
0000001C0000
0000000C0000
000000060000
000000030000
ENDCHAR
STARTCHAR 0077
ENCODING 119
SWIDTH 987 0
DWIDTH 48 0
BBX 47 47 0 -8
BITMAP
000003C00000
00000FE00000
00000FF00000
00001FF00000
00001FF80000
00201FF80400
00F81FF83F00
01FCFFFC7F80
03FFFFFFFFC0
03FFFFFFFFC0
03FFFFFFFFC0
03FFFFFFFFC0
01FFFFFFFF80
01FFFFFFFF00
00FFFFFFFE00
00FFFFFFFC00
01FFF81FFE00
01FFE00FFE00
01FFC003FE00
1FFF8003FFF8
7FFF8001FFFC
7FFF8001FFFE
FFFF0001FFFE
FFFF0001FFFE
FFFF0001FFFE
7FFF8001FFFE
7FFF8001FFFC
1FFF8003FFF8
01FFC003FE00
00FFE00FFC00
00FFF81FFC00
007FFFFFFC00
00FFFFFFFE00
01FFFFFFFF00
01FFFFFFFF80
03FFFFFFFFC0
03FFFFFFFFC0
03FFFFFFFFC0
03FE3FF8FFC0
01FC1FF87F80
00F81FF83F00
00001FF80000
00001FF00000
00001FF00000
00000FF00000
00000FE00000
000003C00000
ENDCHAR
STARTCHAR 0078
ENCODING 120
SWIDTH 987 0
DWIDTH 48 0
BBX 47 39 0 -3
BITMAP
063C00000000
0F3C00000000
0FFC00000000
0FFCC0000000
07FFC0000000
7FFFE0000000
FF0FC0000000
FE0780180000
7E07803E0000
1E07C07E0F00
0E07E07E1F80
3F0FE07F9F80
7FFFE07FFF80
7FFF18FFFF80
33FE3FFFFF00
03FF7FFFFF00
03CF7FFFFF00
03C67FFFFFFC
01003FF83FFE
00001FF01FFE
00001FE00FFE
00001FE007FE
00001FC007FC
00003FC007C0
0000FFC007C0
0000FFE00FC0
0000FFF00FF0
0000FFF83FF8
0000FFFFFFFC
000037FFFFFC
000003FFFFFC
000001FFFCFC
000003FFF870
000003FFFC00
000003F9FC00
000003F0FC00
000003E0FC00
000000C0FC00
000000007800
ENDCHAR
STARTCHAR 0079
ENCODING 121
SWIDTH 987 0
DWIDTH 48 0
BBX 47 41 0 -4
BITMAP
0001FF000000
0007FFC01FC0
001FFFF07FF0
003FFFF87FF8
007FF004FF80
00FFE000FE00
00FFE000FE00
01FFE001FF3E
03FFE001FFFC
03FFF001FFF8
07FFF803FFF8
3FEFFC03FFF0
7FC1FE07FFC0
FF80FF0FFF00
7F807F8FFF00
3F803FFFFF80
1F800FFFF180
0F0007FFC000
020003FF8000
000003FF0000
000007FF0000
00000FFF8000
00003FFFC000
00007FFFE000
0000FFDFF000
0001FF8FF800
0007FF07FC00
000FFE03FE00
001FFC01FF00
003FF801FF80
007FF000FFC0
01FFE0007FE0
03FFC0003FF0
07FF80001FF8
0FFF00000FFC
1FFE000007FE
1FFC000003FE
1FF8000001FC
0FF0000001F8
07E0000000F0
018000000060
ENDCHAR
STARTCHAR 007A
ENCODING 122
SWIDTH 987 0
DWIDTH 48 0
BBX 47 47 0 -8
BITMAP
000000080000
000000080000
000000180000
000000380000
000000700000
000000F00000
000001F00000
000003F00000
000003E00000
000003E00000
000007E00000
000007E00000
000007E00000
000007C00000
00000FC00000
00000FC00000
00000FC00000
00000F800000
00000F800006
00001F8000FC
00F01F800FF8
07FE1F81FFF0
1FFF1F3FFFE0
3FFFBFFFFFC0
3FFFBFFFFF80
7E0FFFFFFE00
7C0FFFFFC000
FC0FFFFC0000
FC1FFF800000
FFFFFE000000
7FFF7E000000
7FFEFF800000
3FFDFFC00000
0FF1FFC00000
0003FFE00000
0003F7E00000
0007E3E00000
0007C3E00000
0007C3E00000
0007C3E00000
0007C7C00000
0007EFC00000
0007FF800000
0003FF800000
0003FF000000
0001FE000000
000078000000
ENDCHAR
STARTCHAR 007B
ENCODING 123
SWIDTH 987 0
DWIDTH 48 0
BBX 47 45 0 -7
BITMAP
00000001FF00
00000000FC00
00000000FC00
000000007F00
000000007F80
000000007FC0
0000000027C0
0000000023E0
0000000001F0
0000000001F0
0000000000F8
000000000078
00000000007C
00000000003C
00000000003E
00000000001E
00000000001E
00000000001E
00000000001E
00000000001E
00000000001E
F0000000001E
F0000000001E
F8000000001E
78000000001E
78000000001E
78000000003E
7C000000003E
3C000000003C
3C000000007C
3E0000000078
1F00000000F8
1F00000000F8
0F80000001F0
07C0000003E0
07E0000007E0
03F000001FC0
01FC00003F80
00FF0000FF00
007FC003FE00
003FFFFFF800
000FFFFFF000
0003FFFFC000
00007FFE0000
000001800000
ENDCHAR
STARTCHAR 007C
ENCODING 124
SWIDTH 987 0
DWIDTH 48 0
BBX 47 45 0 -7
BITMAP
00FF00000000
007F00000000
003F00000000
00FE00000000
01FE00000000
03FE00000000
07E400000000
07C400000000
0F8400000000
1F0000000000
1F0000000000
3E0000000000
3E0000000000
3C0000000000
7C0000000000
780000000000
780000000000
780000000000
F80000000000
F80000000000
F00000000000
F0000000001E
F8000000001E
F8000000001E
78000000001E
78000000001E
78000000001E
7C000000003E
3C000000003C
3C000000007C
3E000000007C
1E00000000F8
1F00000000F8
0F80000001F0
0FC0000003E0
07E0000007E0
03F000000FC0
01FC00003F80
00FE00007F00
007FC003FE00
003FFFFFFC00
000FFFFFF000
0003FFFFC000
0000FFFE0000
00000FC00000
ENDCHAR
STARTCHAR 007D
ENCODING 125
SWIDTH 493 0
DWIDTH 24 0
BBX 0 0 0 0
BITMAP
ENDCHAR
STARTCHAR 007E
ENCODING 126
SWIDTH 493 0
DWIDTH 24 0
BBX 0 0 0 0
BITMAP
ENDCHAR
STARTCHAR 00A0
ENCODING 160
SWIDTH 246 0
DWIDTH 12 0
BBX 0 0 0 0
BITMAP
ENDCHAR
STARTCHAR 00A1
ENCODING 161
SWIDTH 329 0
DWIDTH 16 0
BBX 0 0 0 0
BITMAP
ENDCHAR
STARTCHAR 00A2
ENCODING 162
SWIDTH 555 0
DWIDTH 27 0
BBX 0 0 0 0
BITMAP
ENDCHAR
STARTCHAR 00A3
ENCODING 163
SWIDTH 493 0
DWIDTH 24 0
BBX 0 0 0 0
BITMAP
ENDCHAR
STARTCHAR 00A4
ENCODING 164
SWIDTH 493 0
DWIDTH 24 0
BBX 0 0 0 0
BITMAP
ENDCHAR
STARTCHAR 00A5
ENCODING 165
SWIDTH 617 0
DWIDTH 30 0
BBX 0 0 0 0
BITMAP
ENDCHAR
STARTCHAR 00A6
ENCODING 166
SWIDTH 493 0
DWIDTH 24 0
BBX 0 0 0 0
BITMAP
ENDCHAR
STARTCHAR 00A7
ENCODING 167
SWIDTH 493 0
DWIDTH 24 0
BBX 0 0 0 0
BITMAP
ENDCHAR
STARTCHAR 00A8
ENCODING 168
SWIDTH 514 0
DWIDTH 25 0
BBX 0 0 0 0
BITMAP
ENDCHAR
STARTCHAR 00A9
ENCODING 169
SWIDTH 822 0
DWIDTH 40 0
BBX 0 0 0 0
BITMAP
ENDCHAR
STARTCHAR 00AA
ENCODING 170
SWIDTH 329 0
DWIDTH 16 0
BBX 0 0 0 0
BITMAP
ENDCHAR
STARTCHAR 00AB
ENCODING 171
SWIDTH 473 0
DWIDTH 23 0
BBX 0 0 0 0
BITMAP
ENDCHAR
STARTCHAR 00AC
ENCODING 172
SWIDTH 493 0
DWIDTH 24 0
BBX 0 0 0 0
BITMAP
ENDCHAR
STARTCHAR 00AD
ENCODING 173
SWIDTH 987 0
DWIDTH 48 0
BBX 48 47 0 -8
BITMAP
00003FF80000
0001FFFF8000
0007FFFFE000
001FE007F800
003F0000FC00
007C00003E00
01F000000F00
03E000000780
03E0000003C0
07F0000181E0
0F78000380F0
0E3C00078070
1C1E000F8078
1C0F001F8038
3807803F803C
3803C07F801C
780000FF801C
7000FFFF800E
7001FFFF800E
7001FFFF800E
7001FFFF800E
E001FFFF800E
E001FFFF800E
E001FFFF800F
E001FFFF800E
E001FFFF800E
7001FFFF800E
7001FFFF800E
7001FFFF800E
700000FF801E
7800007F801C
3800007F801C
3800003FA03C
1C00001FB038
1E00000FB878
0E0000079CF0
0F0000039EF0
078000018FE0
03C0000007C0
01E000000780
00F800001F00
007C00003E00
003F0001FC00
000FF00FF000
0007FFFFC000
0000FFFF0000
00001FF80000
ENDCHAR
STARTCHAR 00AE
ENCODING 174
SWIDTH 822 0
DWIDTH 40 0
BBX 0 0 0 0
BITMAP
ENDCHAR
STARTCHAR 00AF
ENCODING 175
SWIDTH 329 0
DWIDTH 16 0
BBX 0 0 0 0
BITMAP
ENDCHAR
STARTCHAR 00B0
ENCODING 176
SWIDTH 329 0
DWIDTH 16 0
BBX 0 0 0 0
BITMAP
ENDCHAR
STARTCHAR 00B1
ENCODING 177
SWIDTH 493 0
DWIDTH 24 0
BBX 0 0 0 0
BITMAP
ENDCHAR
STARTCHAR 00B2
ENCODING 178
SWIDTH 493 0
DWIDTH 24 0
BBX 0 0 0 0
BITMAP
ENDCHAR
STARTCHAR 00B3
ENCODING 179
SWIDTH 493 0
DWIDTH 24 0
BBX 0 0 0 0
BITMAP
ENDCHAR
STARTCHAR 00B4
ENCODING 180
SWIDTH 514 0
DWIDTH 25 0
BBX 0 0 0 0
BITMAP
ENDCHAR
STARTCHAR 00B5
ENCODING 181
SWIDTH 576 0
DWIDTH 28 0
BBX 0 0 0 0
BITMAP
ENDCHAR
STARTCHAR 00B6
ENCODING 182
SWIDTH 514 0
DWIDTH 25 0
BBX 0 0 0 0
BITMAP
ENDCHAR
STARTCHAR 00B7
ENCODING 183
SWIDTH 246 0
DWIDTH 12 0
BBX 0 0 0 0
BITMAP
ENDCHAR
STARTCHAR 00B8
ENCODING 184
SWIDTH 514 0
DWIDTH 25 0
BBX 0 0 0 0
BITMAP
ENDCHAR
STARTCHAR 00B9
ENCODING 185
SWIDTH 493 0
DWIDTH 24 0
BBX 0 0 0 0
BITMAP
ENDCHAR
STARTCHAR 00BA
ENCODING 186
SWIDTH 349 0
DWIDTH 17 0
BBX 0 0 0 0
BITMAP
ENDCHAR
STARTCHAR 00BB
ENCODING 187
SWIDTH 473 0
DWIDTH 23 0
BBX 0 0 0 0
BITMAP
ENDCHAR
STARTCHAR 00BC
ENCODING 188
SWIDTH 843 0
DWIDTH 41 0
BBX 0 0 0 0
BITMAP
ENDCHAR
STARTCHAR 00BD
ENCODING 189
SWIDTH 966 0
DWIDTH 47 0
BBX 0 0 0 0
BITMAP
ENDCHAR
STARTCHAR 00BE
ENCODING 190
SWIDTH 843 0
DWIDTH 41 0
BBX 0 0 0 0
BITMAP
ENDCHAR
STARTCHAR 00BF
ENCODING 191
SWIDTH 370 0
DWIDTH 18 0
BBX 0 0 0 0
BITMAP
ENDCHAR
STARTCHAR 00C0
ENCODING 192
SWIDTH 761 0
DWIDTH 37 0
BBX 0 0 0 0
BITMAP
ENDCHAR
STARTCHAR 00C1
ENCODING 193
SWIDTH 761 0
DWIDTH 37 0
BBX 0 0 0 0
BITMAP
ENDCHAR
STARTCHAR 00C2
ENCODING 194
SWIDTH 761 0
DWIDTH 37 0
BBX 0 0 0 0
BITMAP
ENDCHAR
STARTCHAR 00C3
ENCODING 195
SWIDTH 761 0
DWIDTH 37 0
BBX 0 0 0 0
BITMAP
ENDCHAR
STARTCHAR 00C4
ENCODING 196
SWIDTH 761 0
DWIDTH 37 0
BBX 0 0 0 0
BITMAP
ENDCHAR
STARTCHAR 00C5
ENCODING 197
SWIDTH 761 0
DWIDTH 37 0
BBX 0 0 0 0
BITMAP
ENDCHAR
STARTCHAR 00C6
ENCODING 198
SWIDTH 1049 0
DWIDTH 51 0
BBX 0 0 0 0
BITMAP
ENDCHAR
STARTCHAR 00C7
ENCODING 199
SWIDTH 678 0
DWIDTH 33 0
BBX 0 0 0 0
BITMAP
ENDCHAR
STARTCHAR 00C8
ENCODING 200
SWIDTH 576 0
DWIDTH 28 0
BBX 0 0 0 0
BITMAP
ENDCHAR
STARTCHAR 00C9
ENCODING 201
SWIDTH 576 0
DWIDTH 28 0
BBX 0 0 0 0
BITMAP
ENDCHAR
STARTCHAR 00CA
ENCODING 202
SWIDTH 576 0
DWIDTH 28 0
BBX 0 0 0 0
BITMAP
ENDCHAR
STARTCHAR 00CB
ENCODING 203
SWIDTH 576 0
DWIDTH 28 0
BBX 0 0 0 0
BITMAP
ENDCHAR
STARTCHAR 00CC
ENCODING 204
SWIDTH 329 0
DWIDTH 16 0
BBX 0 0 0 0
BITMAP
ENDCHAR
STARTCHAR 00CD
ENCODING 205
SWIDTH 329 0
DWIDTH 16 0
BBX 0 0 0 0
BITMAP
ENDCHAR
STARTCHAR 00CE
ENCODING 206
SWIDTH 329 0
DWIDTH 16 0
BBX 0 0 0 0
BITMAP
ENDCHAR
STARTCHAR 00CF
ENCODING 207
SWIDTH 329 0
DWIDTH 16 0
BBX 0 0 0 0
BITMAP
ENDCHAR
STARTCHAR 00D0
ENCODING 208
SWIDTH 740 0
DWIDTH 36 0
BBX 0 0 0 0
BITMAP
ENDCHAR
STARTCHAR 00D1
ENCODING 209
SWIDTH 761 0
DWIDTH 37 0
BBX 0 0 0 0
BITMAP
ENDCHAR
STARTCHAR 00D2
ENCODING 210
SWIDTH 802 0
DWIDTH 39 0
BBX 0 0 0 0
BITMAP
ENDCHAR
STARTCHAR 00D3
ENCODING 211
SWIDTH 802 0
DWIDTH 39 0
BBX 0 0 0 0
BITMAP
ENDCHAR
STARTCHAR 00D4
ENCODING 212
SWIDTH 802 0
DWIDTH 39 0
BBX 0 0 0 0
BITMAP
ENDCHAR
STARTCHAR 00D5
ENCODING 213
SWIDTH 802 0
DWIDTH 39 0
BBX 0 0 0 0
BITMAP
ENDCHAR
STARTCHAR 00D6
ENCODING 214
SWIDTH 802 0
DWIDTH 39 0
BBX 0 0 0 0
BITMAP
ENDCHAR
STARTCHAR 00D7
ENCODING 215
SWIDTH 493 0
DWIDTH 24 0
BBX 0 0 0 0
BITMAP
ENDCHAR
STARTCHAR 00D8
ENCODING 216
SWIDTH 802 0
DWIDTH 39 0
BBX 0 0 0 0
BITMAP
ENDCHAR
STARTCHAR 00D9
ENCODING 217
SWIDTH 740 0
DWIDTH 36 0
BBX 0 0 0 0
BITMAP
ENDCHAR
STARTCHAR 00DA
ENCODING 218
SWIDTH 740 0
DWIDTH 36 0
BBX 0 0 0 0
BITMAP
ENDCHAR
STARTCHAR 00DB
ENCODING 219
SWIDTH 740 0
DWIDTH 36 0
BBX 0 0 0 0
BITMAP
ENDCHAR
STARTCHAR 00DC
ENCODING 220
SWIDTH 740 0
DWIDTH 36 0
BBX 0 0 0 0
BITMAP
ENDCHAR
STARTCHAR 00DD
ENCODING 221
SWIDTH 617 0
DWIDTH 30 0
BBX 0 0 0 0
BITMAP
ENDCHAR
STARTCHAR 00DE
ENCODING 222
SWIDTH 555 0
DWIDTH 27 0
BBX 0 0 0 0
BITMAP
ENDCHAR
STARTCHAR 00DF
ENCODING 223
SWIDTH 617 0
DWIDTH 30 0
BBX 0 0 0 0
BITMAP
ENDCHAR
STARTCHAR 00E0
ENCODING 224
SWIDTH 452 0
DWIDTH 22 0
BBX 0 0 0 0
BITMAP
ENDCHAR
STARTCHAR 00E1
ENCODING 225
SWIDTH 452 0
DWIDTH 22 0
BBX 0 0 0 0
BITMAP
ENDCHAR
STARTCHAR 00E2
ENCODING 226
SWIDTH 452 0
DWIDTH 22 0
BBX 0 0 0 0
BITMAP
ENDCHAR
STARTCHAR 00E3
ENCODING 227
SWIDTH 452 0
DWIDTH 22 0
BBX 0 0 0 0
BITMAP
ENDCHAR
STARTCHAR 00E4
ENCODING 228
SWIDTH 452 0
DWIDTH 22 0
BBX 0 0 0 0
BITMAP
ENDCHAR
STARTCHAR 00E5
ENCODING 229
SWIDTH 452 0
DWIDTH 22 0
BBX 0 0 0 0
BITMAP
ENDCHAR
STARTCHAR 00E6
ENCODING 230
SWIDTH 720 0
DWIDTH 35 0
BBX 0 0 0 0
BITMAP
ENDCHAR
STARTCHAR 00E7
ENCODING 231
SWIDTH 452 0
DWIDTH 22 0
BBX 0 0 0 0
BITMAP
ENDCHAR
STARTCHAR 00E8
ENCODING 232
SWIDTH 452 0
DWIDTH 22 0
BBX 0 0 0 0
BITMAP
ENDCHAR
STARTCHAR 00E9
ENCODING 233
SWIDTH 452 0
DWIDTH 22 0
BBX 0 0 0 0
BITMAP
ENDCHAR
STARTCHAR 00EA
ENCODING 234
SWIDTH 452 0
DWIDTH 22 0
BBX 0 0 0 0
BITMAP
ENDCHAR
STARTCHAR 00EB
ENCODING 235
SWIDTH 452 0
DWIDTH 22 0
BBX 0 0 0 0
BITMAP
ENDCHAR
STARTCHAR 00EC
ENCODING 236
SWIDTH 246 0
DWIDTH 12 0
BBX 0 0 0 0
BITMAP
ENDCHAR
STARTCHAR 00ED
ENCODING 237
SWIDTH 246 0
DWIDTH 12 0
BBX 0 0 0 0
BITMAP
ENDCHAR
STARTCHAR 00EE
ENCODING 238
SWIDTH 246 0
DWIDTH 12 0
BBX 0 0 0 0
BITMAP
ENDCHAR
STARTCHAR 00EF
ENCODING 239
SWIDTH 246 0
DWIDTH 12 0
BBX 0 0 0 0
BITMAP
ENDCHAR
STARTCHAR 00F0
ENCODING 240
SWIDTH 555 0
DWIDTH 27 0
BBX 0 0 0 0
BITMAP
ENDCHAR
STARTCHAR 00F1
ENCODING 241
SWIDTH 555 0
DWIDTH 27 0
BBX 0 0 0 0
BITMAP
ENDCHAR
STARTCHAR 00F2
ENCODING 242
SWIDTH 493 0
DWIDTH 24 0
BBX 0 0 0 0
BITMAP
ENDCHAR
STARTCHAR 00F3
ENCODING 243
SWIDTH 493 0
DWIDTH 24 0
BBX 0 0 0 0
BITMAP
ENDCHAR
STARTCHAR 00F4
ENCODING 244
SWIDTH 493 0
DWIDTH 24 0
BBX 0 0 0 0
BITMAP
ENDCHAR
STARTCHAR 00F5
ENCODING 245
SWIDTH 493 0
DWIDTH 24 0
BBX 0 0 0 0
BITMAP
ENDCHAR
STARTCHAR 00F6
ENCODING 246
SWIDTH 493 0
DWIDTH 24 0
BBX 0 0 0 0
BITMAP
ENDCHAR
STARTCHAR 00F7
ENCODING 247
SWIDTH 493 0
DWIDTH 24 0
BBX 0 0 0 0
BITMAP
ENDCHAR
STARTCHAR 00F8
ENCODING 248
SWIDTH 493 0
DWIDTH 24 0
BBX 0 0 0 0
BITMAP
ENDCHAR
STARTCHAR 00F9
ENCODING 249
SWIDTH 514 0
DWIDTH 25 0
BBX 0 0 0 0
BITMAP
ENDCHAR
STARTCHAR 00FA
ENCODING 250
SWIDTH 514 0
DWIDTH 25 0
BBX 0 0 0 0
BITMAP
ENDCHAR
STARTCHAR 00FB
ENCODING 251
SWIDTH 514 0
DWIDTH 25 0
BBX 0 0 0 0
BITMAP
ENDCHAR
STARTCHAR 00FC
ENCODING 252
SWIDTH 514 0
DWIDTH 25 0
BBX 0 0 0 0
BITMAP
ENDCHAR
STARTCHAR 00FD
ENCODING 253
SWIDTH 432 0
DWIDTH 21 0
BBX 0 0 0 0
BITMAP
ENDCHAR
STARTCHAR 00FE
ENCODING 254
SWIDTH 493 0
DWIDTH 24 0
BBX 0 0 0 0
BITMAP
ENDCHAR
STARTCHAR 00FF
ENCODING 255
SWIDTH 432 0
DWIDTH 21 0
BBX 0 0 0 0
BITMAP
ENDCHAR
STARTCHAR 0131
ENCODING 305
SWIDTH 246 0
DWIDTH 12 0
BBX 0 0 0 0
BITMAP
ENDCHAR
STARTCHAR 02C6
ENCODING 710
SWIDTH 514 0
DWIDTH 25 0
BBX 0 0 0 0
BITMAP
ENDCHAR
STARTCHAR 02C7
ENCODING 711
SWIDTH 514 0
DWIDTH 25 0
BBX 0 0 0 0
BITMAP
ENDCHAR
STARTCHAR 02C9
ENCODING 713
SWIDTH 514 0
DWIDTH 25 0
BBX 0 0 0 0
BITMAP
ENDCHAR
STARTCHAR 02D8
ENCODING 728
SWIDTH 514 0
DWIDTH 25 0
BBX 0 0 0 0
BITMAP
ENDCHAR
STARTCHAR 02D9
ENCODING 729
SWIDTH 514 0
DWIDTH 25 0
BBX 0 0 0 0
BITMAP
ENDCHAR
STARTCHAR 02DA
ENCODING 730
SWIDTH 514 0
DWIDTH 25 0
BBX 0 0 0 0
BITMAP
ENDCHAR
STARTCHAR 02DB
ENCODING 731
SWIDTH 514 0
DWIDTH 25 0
BBX 0 0 0 0
BITMAP
ENDCHAR
STARTCHAR 02DC
ENCODING 732
SWIDTH 514 0
DWIDTH 25 0
BBX 0 0 0 0
BITMAP
ENDCHAR
STARTCHAR 02DD
ENCODING 733
SWIDTH 514 0
DWIDTH 25 0
BBX 0 0 0 0
BITMAP
ENDCHAR
STARTCHAR 037E
ENCODING 894
SWIDTH 987 0
DWIDTH 48 0
BBX 48 47 0 -8
BITMAP
000003C00000
000003C00000
000003C00000
000003C00000
000003C00000
000003C00000
000003C00000
000003C00000
000003C00000
000003C00000
000003C00000
000003C00000
000003C00000
000003C00000
000003C00000
000003C00000
000003C00000
000003C00000
000003C00000
000003C00000
000003C00000
000003C00000
FFFFFFFFFFFF
FFFFFFFFFFFF
FFFFFFFFFFFF
000003C00000
000003C00000
000003C00000
000003C00000
000003C00000
000003C00000
000003C00000
000003C00000
000003C00000
000003C00000
000003C00000
000003C00000
000003C00000
000003C00000
000003C00000
000003C00000
000003C00000
000003C00000
000003C00000
000003C00000
000003C00000
000003C00000
ENDCHAR
STARTCHAR 2013
ENCODING 8211
SWIDTH 555 0
DWIDTH 27 0
BBX 0 0 0 0
BITMAP
ENDCHAR
STARTCHAR 2014
ENCODING 8212
SWIDTH 1008 0
DWIDTH 49 0
BBX 0 0 0 0
BITMAP
ENDCHAR
STARTCHAR 2018
ENCODING 8216
SWIDTH 267 0
DWIDTH 13 0
BBX 0 0 0 0
BITMAP
ENDCHAR
STARTCHAR 2019
ENCODING 8217
SWIDTH 267 0
DWIDTH 13 0
BBX 0 0 0 0
BITMAP
ENDCHAR
STARTCHAR 201A
ENCODING 8218
SWIDTH 267 0
DWIDTH 13 0
BBX 0 0 0 0
BITMAP
ENDCHAR
STARTCHAR 201C
ENCODING 8220
SWIDTH 452 0
DWIDTH 22 0
BBX 0 0 0 0
BITMAP
ENDCHAR
STARTCHAR 201D
ENCODING 8221
SWIDTH 452 0
DWIDTH 22 0
BBX 0 0 0 0
BITMAP
ENDCHAR
STARTCHAR 201E
ENCODING 8222
SWIDTH 452 0
DWIDTH 22 0
BBX 0 0 0 0
BITMAP
ENDCHAR
STARTCHAR 2020
ENCODING 8224
SWIDTH 493 0
DWIDTH 24 0
BBX 0 0 0 0
BITMAP
ENDCHAR
STARTCHAR 2021
ENCODING 8225
SWIDTH 493 0
DWIDTH 24 0
BBX 0 0 0 0
BITMAP
ENDCHAR
STARTCHAR 2022
ENCODING 8226
SWIDTH 514 0
DWIDTH 25 0
BBX 0 0 0 0
BITMAP
ENDCHAR
STARTCHAR 2026
ENCODING 8230
SWIDTH 1008 0
DWIDTH 49 0
BBX 0 0 0 0
BITMAP
ENDCHAR
STARTCHAR 2039
ENCODING 8249
SWIDTH 308 0
DWIDTH 15 0
BBX 0 0 0 0
BITMAP
ENDCHAR
STARTCHAR 203A
ENCODING 8250
SWIDTH 308 0
DWIDTH 15 0
BBX 0 0 0 0
BITMAP
ENDCHAR
STARTCHAR 2044
ENCODING 8260
SWIDTH 164 0
DWIDTH 8 0
BBX 0 0 0 0
BITMAP
ENDCHAR
STARTCHAR 20A3
ENCODING 8355
SWIDTH 493 0
DWIDTH 24 0
BBX 0 0 0 0
BITMAP
ENDCHAR
STARTCHAR 20A4
ENCODING 8356
SWIDTH 493 0
DWIDTH 24 0
BBX 0 0 0 0
BITMAP
ENDCHAR
STARTCHAR 20A7
ENCODING 8359
SWIDTH 1008 0
DWIDTH 49 0
BBX 0 0 0 0
BITMAP
ENDCHAR
STARTCHAR 20AC
ENCODING 8364
SWIDTH 493 0
DWIDTH 24 0
BBX 0 0 0 0
BITMAP
ENDCHAR
STARTCHAR 2116
ENCODING 8470
SWIDTH 1110 0
DWIDTH 54 0
BBX 0 0 0 0
BITMAP
ENDCHAR
STARTCHAR 2122
ENCODING 8482
SWIDTH 740 0
DWIDTH 36 0
BBX 0 0 0 0
BITMAP
ENDCHAR
STARTCHAR 2202
ENCODING 8706
SWIDTH 493 0
DWIDTH 24 0
BBX 0 0 0 0
BITMAP
ENDCHAR
STARTCHAR 2206
ENCODING 8710
SWIDTH 534 0
DWIDTH 26 0
BBX 0 0 0 0
BITMAP
ENDCHAR
STARTCHAR 220F
ENCODING 8719
SWIDTH 740 0
DWIDTH 36 0
BBX 0 0 0 0
BITMAP
ENDCHAR
STARTCHAR 2211
ENCODING 8721
SWIDTH 596 0
DWIDTH 29 0
BBX 0 0 0 0
BITMAP
ENDCHAR
STARTCHAR 2212
ENCODING 8722
SWIDTH 493 0
DWIDTH 24 0
BBX 0 0 0 0
BITMAP
ENDCHAR
STARTCHAR 2215
ENCODING 8725
SWIDTH 164 0
DWIDTH 8 0
BBX 0 0 0 0
BITMAP
ENDCHAR
STARTCHAR 2219
ENCODING 8729
SWIDTH 246 0
DWIDTH 12 0
BBX 0 0 0 0
BITMAP
ENDCHAR
STARTCHAR 221A
ENCODING 8730
SWIDTH 493 0
DWIDTH 24 0
BBX 0 0 0 0
BITMAP
ENDCHAR
STARTCHAR 221E
ENCODING 8734
SWIDTH 493 0
DWIDTH 24 0
BBX 0 0 0 0
BITMAP
ENDCHAR
STARTCHAR 222B
ENCODING 8747
SWIDTH 329 0
DWIDTH 16 0
BBX 0 0 0 0
BITMAP
ENDCHAR
STARTCHAR 2248
ENCODING 8776
SWIDTH 493 0
DWIDTH 24 0
BBX 0 0 0 0
BITMAP
ENDCHAR
STARTCHAR 2264
ENCODING 8804
SWIDTH 493 0
DWIDTH 24 0
BBX 0 0 0 0
BITMAP
ENDCHAR
STARTCHAR 2265
ENCODING 8805
SWIDTH 493 0
DWIDTH 24 0
BBX 0 0 0 0
BITMAP
ENDCHAR
STARTCHAR F001
ENCODING 61441
SWIDTH 534 0
DWIDTH 26 0
BBX 0 0 0 0
BITMAP
ENDCHAR
STARTCHAR F002
ENCODING 61442
SWIDTH 534 0
DWIDTH 26 0
BBX 0 0 0 0
BITMAP
ENDCHAR
STARTCHAR FB01
ENCODING 64257
SWIDTH 534 0
DWIDTH 26 0
BBX 0 0 0 0
BITMAP
ENDCHAR
STARTCHAR FB02
ENCODING 64258
SWIDTH 534 0
DWIDTH 26 0
BBX 0 0 0 0
BITMAP
ENDCHAR
ENDFONT
